<svg width="193" height="193" viewBox="0 0 193 193" fill="none" xmlns="http://www.w3.org/2000/svg">
<path d="M81.6581 189.298L18.7285 152.964L119.602 94.7554L182.531 131.09L81.6581 189.298Z" fill="#E0E0E0"/>
<path d="M17.3433 46.4548L18.4434 47.111L41.0051 34.0835L39.9088 33.4312L17.3433 46.4548Z" fill="#FAFAFA"/>
<path d="M39.9088 33.431L18.4434 45.8177V23.3409L39.9088 10.9619V33.431Z" fill="white"/>
<path d="M43.0818 6.72363L16.3706 22.1443V50.7083L43.0818 35.2683V6.72363ZM41.0051 34.0833L18.4434 47.1108V23.3409L41.0051 10.3173V34.0833Z" fill="#F0F0F0"/>
<path d="M41.0049 34.0834L39.9087 33.4311V10.962L41.0049 10.3174V34.0834Z" fill="#E0E0E0"/>
<path d="M43.0816 6.72377L41.9661 6.08301L15.2549 21.5076L16.3704 22.1445L43.0816 6.72377Z" fill="#FAFAFA"/>
<path d="M15.2549 21.5073L16.3704 22.1442V50.7044L15.2549 50.0636V21.5073Z" fill="#E0E0E0"/>
<path d="M29.4635 24.6537L28.3711 22.7738L29.4326 19.6858H29.4558L31.6019 18.4468L31.6328 18.5008L32.6943 20.3382L31.6521 23.3992H31.6289L29.4635 24.6537ZM28.5139 22.7468L29.5098 24.4761L31.5247 23.3181L32.5515 20.3536L31.5517 18.6243L29.5407 19.7823L28.5139 22.7468Z" fill="#F0F0F0"/>
<path d="M32.5977 25.2556L32.5669 25.2016L31.5054 23.3642L32.5707 20.2762H32.59L34.74 19.041L35.8363 20.9363L34.7709 24.005L32.5977 25.2556ZM31.6521 23.3488L32.6479 25.0896L34.659 23.9316L35.6857 20.9633L34.6899 19.234L32.675 20.392L31.6521 23.3488Z" fill="#F0F0F0"/>
<path d="M29.4634 29.4821L28.3672 27.5907L29.4325 24.5027H29.4557L31.6019 23.2637L32.6942 25.1551L31.6327 28.2431H31.6096L29.4634 29.4821ZM28.5139 27.5753L29.5097 29.3046L31.5247 28.1466L32.5514 25.1782L31.5517 23.449L29.5406 24.607L28.5139 27.5753Z" fill="#F0F0F0"/>
<path d="M26.3253 33.7052L25.2329 31.8138L26.2983 28.7258H26.3176L28.4637 27.4829L29.56 29.3782L28.4946 32.4662L26.3253 33.7052ZM25.3757 31.7984L26.3755 33.5277L28.3865 32.3697L29.4171 29.4013L28.4174 27.6721L26.4025 28.8301L25.3757 31.7984Z" fill="#F0F0F0"/>
<path d="M26.3253 38.5338L25.2329 36.6424L26.2983 33.5544H26.3176L28.4637 32.3115L29.56 34.2068L28.4946 37.2948L26.3253 38.5338ZM25.3757 36.627L26.3755 38.3563L28.3865 37.1983L29.4171 34.2299L28.4174 32.5007L26.4025 33.6587L25.3757 36.627Z" fill="#F0F0F0"/>
<path d="M23.1911 37.9318L23.1602 37.8739L22.1025 36.0404L23.164 32.9524H23.1872L25.3334 31.7134L26.4257 33.6048L25.3604 36.6696H25.3372L23.1911 37.9318ZM22.2415 36.025L23.2374 37.7543L25.2523 36.5963L26.2791 33.6279L25.2832 31.8948L23.2683 33.0528L22.2415 36.025Z" fill="#F0F0F0"/>
<path d="M32.1541 23.0243C32.1507 23.2404 32.0969 23.4527 31.9971 23.6443C31.8973 23.8359 31.7541 24.0017 31.579 24.1283C31.2586 24.3097 31 24.1283 31 23.6882C31.003 23.4722 31.0569 23.2599 31.1576 23.0688C31.2582 22.8776 31.4026 22.7129 31.579 22.5881C31.8955 22.3874 32.1541 22.5959 32.1541 23.0243Z" fill="#F0F0F0"/>
<path d="M33.1961 20.006C33.1926 20.2225 33.1383 20.4351 33.0378 20.6268C32.9372 20.8185 32.7932 20.984 32.6171 21.11C32.3006 21.2914 32.042 21.11 32.042 20.6738C32.0445 20.4576 32.0979 20.245 32.1978 20.0532C32.2977 19.8614 32.4414 19.6958 32.6171 19.5698C32.9414 19.3846 33.1961 19.5776 33.1961 20.006Z" fill="#F0F0F0"/>
<path d="M30.0619 29.0575C30.0593 29.2738 30.006 29.4864 29.906 29.6781C29.8061 29.8699 29.6625 30.0355 29.4867 30.1615C29.1663 30.3468 28.9077 30.1615 28.9077 29.7253C28.9113 29.5088 28.9655 29.2962 29.0661 29.1045C29.1666 28.9128 29.3107 28.7473 29.4867 28.6213C29.8032 28.4399 30.0619 28.6329 30.0619 29.0575Z" fill="#F0F0F0"/>
<path d="M26.9276 33.2843C26.924 33.5007 26.8698 33.7133 26.7692 33.905C26.6687 34.0967 26.5246 34.2622 26.3486 34.3882C26.0321 34.5696 25.7734 34.3882 25.7734 33.952C25.776 33.7358 25.8293 33.5232 25.9293 33.3314C26.0292 33.1396 26.1728 32.9741 26.3486 32.8481C26.669 32.6628 26.9276 32.8597 26.9276 33.2843Z" fill="#F0F0F0"/>
<path d="M25.8817 31.4743C25.8783 31.6903 25.8245 31.9026 25.7246 32.0943C25.6248 32.2859 25.4816 32.4516 25.3065 32.5782C24.9862 32.7597 24.7275 32.5782 24.7275 32.1421C24.7302 31.9254 24.784 31.7125 24.8847 31.5206C24.9853 31.3288 25.1298 31.1634 25.3065 31.0381C25.6231 30.8528 25.8817 31.0458 25.8817 31.4743Z" fill="#F0F0F0"/>
<path d="M29.7415 19.5892C29.7388 19.6838 29.7144 19.7765 29.6702 19.8601C29.6261 19.9438 29.5633 20.0162 29.4867 20.0717C29.3439 20.1528 29.2319 20.0717 29.2319 19.8787C29.2328 19.7833 29.2564 19.6894 29.3007 19.6048C29.3449 19.5203 29.4087 19.4474 29.4867 19.3924C29.6257 19.2997 29.7415 19.4001 29.7415 19.5892Z" fill="#F0F0F0"/>
<path d="M31.8337 18.3809C31.8316 18.4761 31.8075 18.5696 31.7633 18.6539C31.7191 18.7383 31.656 18.8113 31.5789 18.8672C31.4361 18.9483 31.3203 18.8672 31.3203 18.6742C31.3219 18.5785 31.3462 18.4845 31.3912 18.4C31.4361 18.3154 31.5005 18.2428 31.5789 18.1879C31.7179 18.1068 31.8337 18.1917 31.8337 18.3809Z" fill="#F0F0F0"/>
<path d="M28.6956 22.604C28.6947 22.7 28.6711 22.7944 28.6269 22.8796C28.5826 22.9648 28.5188 23.0383 28.4408 23.0942C28.3018 23.1752 28.186 23.0942 28.186 22.9012C28.1875 22.8053 28.2113 22.7111 28.2555 22.626C28.2998 22.5409 28.3632 22.4673 28.4408 22.411C28.5836 22.3299 28.6956 22.4187 28.6956 22.604Z" fill="#F0F0F0"/>
<path d="M29.7415 24.418C29.7394 24.5132 29.7153 24.6067 29.6711 24.691C29.6269 24.7754 29.5638 24.8484 29.4867 24.9044C29.3439 24.9854 29.2319 24.9044 29.2319 24.7114C29.2328 24.6159 29.2564 24.522 29.3007 24.4374C29.3449 24.3529 29.4087 24.2801 29.4867 24.225C29.6257 24.1439 29.7415 24.2289 29.7415 24.418Z" fill="#F0F0F0"/>
<path d="M34.968 18.9829C34.9668 19.0789 34.9432 19.1732 34.8989 19.2583C34.8547 19.3435 34.7911 19.417 34.7133 19.4732C34.5743 19.5542 34.4585 19.4732 34.4585 19.2802C34.46 19.1843 34.4838 19.0901 34.528 19.005C34.5722 18.9199 34.6357 18.8463 34.7133 18.7899C34.8561 18.7089 34.968 18.7938 34.968 18.9829Z" fill="#F0F0F0"/>
<path d="M36.0139 20.7934C36.013 20.8894 35.9895 20.9838 35.9452 21.069C35.901 21.1542 35.8372 21.2277 35.7592 21.2836C35.6163 21.3647 35.5044 21.2836 35.5044 21.0906C35.5053 20.9946 35.5288 20.9002 35.5731 20.815C35.6174 20.7298 35.6811 20.6563 35.7592 20.6004C35.8981 20.5194 36.0139 20.6081 36.0139 20.7934Z" fill="#F0F0F0"/>
<path d="M34.968 23.8119C34.9693 23.9105 34.9468 24.0079 34.9024 24.0959C34.8581 24.1839 34.7932 24.26 34.7133 24.3176C34.5743 24.3987 34.4585 24.3176 34.4585 24.1246C34.46 24.0287 34.4838 23.9345 34.528 23.8494C34.5722 23.7643 34.6357 23.6907 34.7133 23.6344C34.8561 23.5456 34.968 23.6228 34.968 23.8119Z" fill="#F0F0F0"/>
<path d="M32.8796 25.02C32.878 25.1158 32.8537 25.2098 32.8087 25.2943C32.7638 25.3788 32.6994 25.4515 32.621 25.5064C32.482 25.5875 32.3662 25.5064 32.3662 25.3134C32.3683 25.2182 32.3924 25.1247 32.4366 25.0404C32.4808 24.956 32.5439 24.883 32.621 24.827C32.7638 24.746 32.8796 24.8309 32.8796 25.02Z" fill="#F0F0F0"/>
<path d="M31.8337 28.0386C31.8322 28.1339 31.8084 28.2276 31.7641 28.3121C31.7199 28.3965 31.6565 28.4694 31.5789 28.525C31.4361 28.606 31.3203 28.525 31.3203 28.332C31.3222 28.2363 31.3467 28.1424 31.3916 28.0579C31.4365 27.9734 31.5007 27.9007 31.5789 27.8456C31.7179 27.7645 31.8337 27.8495 31.8337 28.0386Z" fill="#F0F0F0"/>
<path d="M28.6956 27.4367C28.6944 27.5321 28.6707 27.6259 28.6264 27.7104C28.5821 27.7949 28.5185 27.8678 28.4408 27.9231C28.298 28.0041 28.186 27.9231 28.186 27.7301C28.1869 27.6346 28.2105 27.5407 28.2548 27.4562C28.2991 27.3716 28.3628 27.2988 28.4408 27.2437C28.5836 27.1588 28.6956 27.2476 28.6956 27.4367Z" fill="#F0F0F0"/>
<path d="M26.6071 28.6406C26.6055 28.7364 26.5812 28.8304 26.5363 28.9149C26.4913 28.9995 26.427 29.0721 26.3485 29.127C26.2096 29.2119 26.0938 29.127 26.0938 28.934C26.0958 28.8388 26.1199 28.7453 26.1641 28.661C26.2083 28.5766 26.2714 28.5036 26.3485 28.4476C26.4913 28.3666 26.6071 28.4515 26.6071 28.6406Z" fill="#F0F0F0"/>
<path d="M28.6956 32.2617C28.6947 32.3577 28.6711 32.4521 28.6269 32.5373C28.5826 32.6225 28.5188 32.696 28.4408 32.7519C28.3018 32.833 28.186 32.7519 28.186 32.5589C28.1875 32.463 28.2113 32.3688 28.2555 32.2837C28.2998 32.1986 28.3632 32.125 28.4408 32.0687C28.5836 31.9876 28.6956 32.0764 28.6956 32.2617Z" fill="#F0F0F0"/>
<path d="M29.7415 34.0717C29.7406 34.1677 29.717 34.2622 29.6728 34.3473C29.6285 34.4325 29.5647 34.5061 29.4867 34.562C29.3439 34.643 29.2319 34.562 29.2319 34.369C29.2328 34.273 29.2564 34.1785 29.3006 34.0933C29.3449 34.0082 29.4086 33.9346 29.4867 33.8787C29.6295 33.7977 29.7415 33.8865 29.7415 34.0717Z" fill="#F0F0F0"/>
<path d="M28.6956 37.0903C28.6947 37.1863 28.6711 37.2807 28.6269 37.3659C28.5826 37.4511 28.5188 37.5246 28.4408 37.5805C28.3018 37.6616 28.186 37.5805 28.186 37.3875C28.1875 37.2916 28.2113 37.1974 28.2555 37.1123C28.2998 37.0272 28.3632 36.9536 28.4408 36.8973C28.5836 36.8162 28.6956 36.905 28.6956 37.0903Z" fill="#F0F0F0"/>
<path d="M26.6071 38.2984C26.6055 38.3941 26.5812 38.4881 26.5363 38.5726C26.4913 38.6572 26.427 38.7299 26.3485 38.7847C26.2096 38.8696 26.0938 38.7847 26.0938 38.5917C26.0958 38.4965 26.1199 38.4031 26.1641 38.3187C26.2083 38.2343 26.2714 38.1613 26.3485 38.1054C26.4913 38.0243 26.6071 38.1092 26.6071 38.2984Z" fill="#F0F0F0"/>
<path d="M23.469 37.6965C23.4669 37.7917 23.4428 37.8851 23.3986 37.9695C23.3544 38.0539 23.2913 38.1269 23.2142 38.1828C23.0714 38.2639 22.9595 38.1828 22.9595 37.9898C22.9603 37.8944 22.9839 37.8005 23.0282 37.7159C23.0725 37.6314 23.1363 37.5585 23.2142 37.5035C23.3532 37.4417 23.469 37.5073 23.469 37.6965Z" fill="#F0F0F0"/>
<path d="M25.5612 36.488C25.5597 36.5834 25.5359 36.677 25.4917 36.7615C25.4474 36.846 25.384 36.9189 25.3065 36.9744C25.1637 37.0554 25.0479 36.9744 25.0479 36.7814C25.048 36.6837 25.0715 36.5876 25.1165 36.5009C25.1615 36.4143 25.2267 36.3397 25.3065 36.2834C25.4454 36.214 25.5612 36.2834 25.5612 36.488Z" fill="#F0F0F0"/>
<path d="M23.469 32.8677C23.4669 32.9629 23.4428 33.0564 23.3986 33.1407C23.3544 33.2251 23.2913 33.2981 23.2142 33.3541C23.0714 33.4351 22.9595 33.3541 22.9595 33.1611C22.9603 33.0656 22.9839 32.9717 23.0282 32.8872C23.0725 32.8026 23.1363 32.7298 23.2142 32.6747C23.3532 32.5936 23.469 32.6786 23.469 32.8677Z" fill="#F0F0F0"/>
<path d="M22.4231 35.8976C22.4219 35.993 22.3982 36.0868 22.354 36.1713C22.3097 36.2558 22.2461 36.3287 22.1683 36.384C22.0294 36.4651 21.9136 36.384 21.9136 36.191C21.9151 36.0957 21.9389 36.002 21.9831 35.9175C22.0274 35.8331 22.0908 35.7601 22.1683 35.7046C22.3112 35.6081 22.4231 35.6969 22.4231 35.8976Z" fill="#F0F0F0"/>
<path d="M31.081 32.8097L38.801 28.3553C38.8749 28.3164 38.9391 28.2616 38.9892 28.1948C39.0393 28.1281 39.0739 28.051 39.0905 27.9693C39.0905 27.8419 38.9593 27.811 38.801 27.8998L31.081 32.3542C31.0078 32.3933 30.9441 32.4483 30.8947 32.515C30.8453 32.5818 30.8114 32.6587 30.7954 32.7402C30.7954 32.856 30.9228 32.8869 31.081 32.8097Z" fill="#F0F0F0"/>
<path d="M31.081 31.5743L38.801 27.1199C38.8749 27.081 38.9391 27.0262 38.9892 26.9594C39.0393 26.8927 39.0739 26.8157 39.0905 26.7339C39.0905 26.6065 38.9593 26.5756 38.801 26.6644L31.081 31.1189C31.0078 31.158 30.9441 31.2129 30.8947 31.2797C30.8453 31.3464 30.8114 31.4234 30.7954 31.5049C30.7954 31.6515 30.9228 31.6515 31.081 31.5743Z" fill="#F0F0F0"/>
<path d="M19.6631 28.4978L25.0671 25.3712C25.1407 25.3325 25.2046 25.2777 25.2541 25.2109C25.3035 25.144 25.3373 25.0669 25.3527 24.9852C25.3527 24.8539 25.2253 24.8231 25.0671 24.9157L19.6631 28.0384C19.5898 28.0776 19.5262 28.1325 19.4768 28.1993C19.4274 28.266 19.3934 28.3429 19.3774 28.4244C19.3774 28.5634 19.5048 28.5866 19.6631 28.4978Z" fill="#F0F0F0"/>
<path d="M19.6631 27.2781L25.0671 24.1515C25.1407 24.1128 25.2046 24.058 25.2541 23.9911C25.3035 23.9243 25.3373 23.8472 25.3527 23.7655C25.3527 23.6342 25.2253 23.6033 25.0671 23.696L19.6631 26.8187C19.5898 26.8578 19.5262 26.9128 19.4768 26.9795C19.4274 27.0463 19.3934 27.1232 19.3774 27.2047C19.3774 27.336 19.5048 27.3668 19.6631 27.2781Z" fill="#F0F0F0"/>
<path d="M35.2613 27.8957C35.2442 27.8948 35.228 27.8876 35.2159 27.8755C35.2038 27.8634 35.1966 27.8472 35.1957 27.8301V26.2475L33.119 25.3906C33.1108 25.3877 33.1034 25.3831 33.0972 25.3771C33.0909 25.3711 33.086 25.3639 33.0827 25.3559C33.0794 25.3479 33.0779 25.3393 33.0782 25.3306C33.0784 25.322 33.0805 25.3135 33.0842 25.3057C33.0911 25.2899 33.1038 25.2775 33.1196 25.271C33.1355 25.2645 33.1533 25.2645 33.1692 25.2709L35.2844 26.124C35.297 26.1275 35.308 26.1351 35.3157 26.1456C35.3234 26.1561 35.3274 26.1689 35.3269 26.1819V27.8301C35.326 27.8472 35.3188 27.8634 35.3067 27.8755C35.2945 27.8876 35.2784 27.8948 35.2613 27.8957Z" fill="#F0F0F0"/>
<path d="M25.8817 28.7681L22.6624 28.2509C22.6471 28.2481 22.6333 28.24 22.6234 28.228C22.6135 28.216 22.6082 28.2008 22.6084 28.1852V27.3283C22.6084 27.3197 22.6101 27.3112 22.6134 27.3032C22.6167 27.2952 22.6215 27.288 22.6276 27.2819C22.6337 27.2758 22.641 27.271 22.6489 27.2677C22.6569 27.2644 22.6654 27.2627 22.674 27.2627C22.6911 27.2636 22.7073 27.2708 22.7194 27.2829C22.7315 27.2951 22.7387 27.3112 22.7396 27.3283V28.1312L25.901 28.6407C25.9095 28.6416 25.9177 28.6443 25.9252 28.6486C25.9326 28.6528 25.9391 28.6586 25.9442 28.6655C25.9492 28.6724 25.9528 28.6803 25.9547 28.6886C25.9566 28.697 25.9567 28.7056 25.955 28.7141C25.9541 28.7226 25.9514 28.7308 25.9472 28.7382C25.9429 28.7457 25.9372 28.7521 25.9303 28.7572C25.9234 28.7623 25.9155 28.7659 25.9071 28.7678C25.8988 28.7696 25.8901 28.7698 25.8817 28.7681Z" fill="#F0F0F0"/>
<path d="M51.7241 19.605L52.8435 20.2419V48.802L51.7241 48.1613V19.605Z" fill="#E0E0E0"/>
<path d="M53.8164 44.552L54.9165 45.2082L77.4782 32.1845L76.3781 31.5283L53.8164 44.552Z" fill="#FAFAFA"/>
<path d="M79.555 4.8208L52.8438 20.2415V48.8055L79.555 33.3848V4.8208ZM77.4783 32.1843L54.9166 45.208V21.442L77.4783 8.41446V32.1843Z" fill="#F0F0F0"/>
<path d="M77.478 32.1844L76.3779 31.5282V9.05917L77.478 8.41455V32.1844Z" fill="#E0E0E0"/>
<path d="M79.5547 4.82098L78.4353 4.18408L51.7241 19.6048L52.8435 20.2417L79.5547 4.82098Z" fill="#FAFAFA"/>
<path d="M67.3454 24.1675C67.3454 24.1675 67.3454 24.1675 67.3145 24.1675C67.2836 24.1675 67.3377 24.1675 67.3145 24.1675C67.2913 24.1675 67.3377 24.1675 67.3454 24.1675C67.3531 24.1675 67.3454 24.1598 67.3454 24.1675Z" fill="#F0F0F0"/>
<path d="M76.3781 31.5281L54.9165 43.9149V21.442L76.3781 9.05908V31.5281Z" fill="white"/>
<path d="M73.2977 26.7689C74.2781 26.2054 75.0694 26.6608 75.0694 27.7918C75.0399 28.4101 74.8638 29.0125 74.5558 29.5494C74.2477 30.0863 73.8165 30.5423 73.2977 30.8798C72.3211 31.4434 71.5298 30.9879 71.5298 29.8569C71.5595 29.2391 71.7352 28.6372 72.0425 28.1004C72.3498 27.5636 72.78 27.1073 73.2977 26.7689Z" fill="#E0E0E0"/>
<path d="M58.9846 22.1563L72.3209 14.4363C72.7069 14.2201 72.9926 14.3938 72.9926 14.8223V14.8609C72.9796 15.0931 72.912 15.319 72.7953 15.5202C72.6786 15.7214 72.5161 15.8923 72.3209 16.0189L58.9846 23.7389C58.5986 23.9512 58.313 23.7775 58.313 23.3529V23.3104C58.3277 23.0791 58.3961 22.8544 58.5127 22.6541C58.6292 22.4538 58.7908 22.2833 58.9846 22.1563Z" fill="#E0E0E0"/>
<path d="M56.8732 28.2244L74.4285 18.0919C74.8145 17.8757 75.1002 17.9722 75.1002 18.308C75.072 18.5139 74.9968 18.7105 74.8803 18.8826C74.7638 19.0546 74.6092 19.1975 74.4285 19.3001L56.8617 29.4441C56.4757 29.6603 56.19 29.5599 56.1939 29.2241C56.2237 29.0168 56.3004 28.819 56.4181 28.6458C56.5358 28.4726 56.6915 28.3284 56.8732 28.2244Z" fill="#F0F0F0"/>
<path d="M56.8732 30.6482L74.4285 20.5118C74.8145 20.2957 75.1002 20.396 75.1002 20.728C75.0726 20.9345 74.9976 21.1319 74.8811 21.3047C74.7646 21.4774 74.6097 21.6209 74.4285 21.7239L56.8617 31.8679C56.4757 32.0802 56.19 31.9799 56.1939 31.6441C56.2234 31.4372 56.3 31.2398 56.4178 31.0671C56.5356 30.8945 56.6914 30.7512 56.8732 30.6482Z" fill="#F0F0F0"/>
<path d="M56.8732 33.0687L74.4285 22.9323C74.8145 22.72 75.1002 22.8165 75.1002 23.1523C75.0726 23.3584 74.9976 23.5552 74.8811 23.7273C74.7645 23.8995 74.6096 24.0422 74.4285 24.1443L56.8617 34.2884C56.4757 34.5007 56.19 34.4042 56.1939 34.0645C56.2234 33.8576 56.3 33.6603 56.4178 33.4876C56.5356 33.315 56.6914 33.1716 56.8732 33.0687Z" fill="#F0F0F0"/>
<path d="M70.148 31.9527C70.0119 32.0238 69.8615 32.0634 69.708 32.0685C69.322 32.0685 69.3683 31.6825 69.3799 31.42C69.3799 31.3004 69.2216 31.1189 69.1328 31.2772C68.9051 31.6864 68.6195 32.0492 68.3608 32.4661C68.2103 32.7131 67.9285 33.2651 67.5657 33.184C67.4151 33.1532 67.365 32.991 67.365 32.798C67.5484 32.4647 67.6302 32.085 67.6004 31.7057C67.6004 31.5899 67.3958 31.4509 67.3341 31.6053C67.2098 31.9283 67.1331 32.2677 67.1063 32.6128C66.9402 32.9093 66.7504 33.192 66.5389 33.4581C66.4193 33.6202 66.3112 33.7978 66.1761 33.9522C66.1452 33.9869 66.0834 34.0796 66.0294 34.0911C65.9059 34.0911 65.9175 34.0371 65.902 33.956C65.8983 33.8338 65.918 33.7119 65.9599 33.5971C65.9582 33.5881 65.9582 33.579 65.9599 33.57C65.9599 33.4504 65.8094 33.2728 65.7476 33.4233C65.5171 34.0485 65.1729 34.6256 64.7324 35.1256L64.663 35.1797C64.663 35.1102 64.6437 35.0407 64.6359 34.9712C64.6303 34.8088 64.603 34.6478 64.5549 34.4926C64.524 34.4154 64.3928 34.2996 64.3194 34.3999C63.9334 34.9365 63.6516 35.5579 63.1614 36.0173C63.0823 36.0785 62.9999 36.1352 62.9144 36.1871C62.8333 36.1408 62.9568 35.7162 62.9761 35.6506C63.0225 35.4576 63.0842 35.2646 63.146 35.087C63.2115 34.9374 63.2594 34.7806 63.2888 34.62C63.312 34.4771 63.0611 34.2571 63.0186 34.4501C62.9993 34.5273 62.9298 34.7203 62.8565 34.9596C62.5699 35.539 62.2409 36.0963 61.8722 36.6272C61.5327 37.1746 61.0616 37.6285 60.5019 37.9473C60.3436 38.0322 60.0503 38.1557 59.8804 38.0322C59.7106 37.9087 59.726 37.6925 59.7222 37.5343C59.7163 37.1232 59.771 36.7135 59.8843 36.3183C60.435 36.0271 60.9461 35.6665 61.4051 35.2453C61.8497 34.8855 62.2307 34.4536 62.5322 33.9676C62.6905 33.6897 62.7831 33.2226 62.4049 33.0644C62.1424 32.9524 61.8066 33.1377 61.5865 33.2612C61.2778 33.4362 60.9957 33.6546 60.7489 33.9097C60.2558 34.4636 59.8977 35.1242 59.7029 35.8397C59.6681 35.9478 59.6257 36.0945 59.5832 36.2605C58.9879 36.5625 58.3142 36.6743 57.6532 36.5808C57.6185 36.5808 57.603 36.658 57.6532 36.6658C58.2874 36.7994 58.9473 36.7361 59.5446 36.4843C59.3748 37.2177 59.2821 38.1905 59.9653 38.3796C60.6486 38.5687 61.4746 37.7118 61.8413 37.2216C62.1193 36.8484 62.3647 36.4519 62.5747 36.0366C62.593 36.0055 62.6137 35.9758 62.6365 35.9478C62.6365 36.2875 62.7059 36.5345 63.0225 36.4805C63.339 36.4264 63.6671 35.9439 63.8524 35.6853C64.0376 35.4267 64.1882 35.1835 64.3542 34.9133C64.3812 35.2182 64.4391 35.5695 64.7402 35.5078C65.0412 35.446 65.2767 34.9442 65.4157 34.7358C65.5546 34.5273 65.6473 34.3768 65.7476 34.1876C65.7645 34.2229 65.7866 34.2555 65.8132 34.2841C66.0564 34.5466 66.3459 34.2841 66.5042 34.0603C66.7242 33.7669 66.979 33.4581 67.1874 33.13C67.212 33.2004 67.2502 33.2653 67.2999 33.3209C67.3495 33.3766 67.4097 33.4219 67.4769 33.4542C67.8629 33.6318 68.2064 33.323 68.4226 33.0451C68.6889 32.6869 68.9252 32.3073 69.129 31.9102C69.1429 31.9849 69.1729 32.0557 69.2169 32.1177C69.2609 32.1797 69.3178 32.2314 69.3837 32.2692C69.5227 32.3398 69.6781 32.3716 69.8336 32.3614C69.9892 32.3512 70.1391 32.2994 70.2677 32.2113C70.3835 32.1418 70.2715 31.8909 70.148 31.9527ZM61.9339 33.4195C62.1076 33.3307 62.4705 33.1802 62.4898 33.4735C62.4616 33.6635 62.38 33.8416 62.2543 33.9869C61.9563 34.3878 61.6131 34.7531 61.2314 35.0754C60.8371 35.4391 60.4093 35.7648 59.9538 36.0482C60.0845 35.4971 60.328 34.979 60.6688 34.5266C61.0096 34.0742 61.4403 33.6972 61.9339 33.4195Z" fill="#E0E0E0"/>
<path d="M86.2825 128.125C86.379 126.867 85.3832 125.423 83.1675 123.732C79.0798 120.59 64.2149 110.253 58.4404 106.428C58.4398 106.415 58.4349 106.403 58.4265 106.393C58.4181 106.383 58.4067 106.377 58.394 106.374C53.9743 103.182 52.99 81.3187 50.5775 70.862C50.5544 70.7655 50.3884 69.9626 50.0526 68.932L50.0024 68.793C49.9561 68.6502 49.9059 68.5074 49.8519 68.3607C49.8287 68.2912 49.8055 68.214 49.7785 68.1484C49.3648 66.9431 48.7182 65.831 47.8755 64.8751C47.5846 64.5552 47.2508 64.2772 46.8835 64.0491C46.3856 63.7132 45.1658 63.1034 44.9033 62.9219C41.8964 60.7796 34.269 66.2145 28.8843 68.627C25.5339 70.1324 22.6273 72.0045 20.651 75.768C19.5692 77.9351 18.8408 80.2611 18.4932 82.6581C17.6093 88.0004 17.7868 105.934 18.2578 113.808C18.802 126.952 20.7397 127.129 23.3877 129.534C27.9386 133.668 41.3058 142.125 45.7757 144.306C53.8817 148.259 61.096 143.735 66.3842 141.627C71.6724 139.52 81.693 134.614 83.9588 133.228C85.3021 132.402 86.0394 131.518 86.105 130.526C86.1166 130.136 86.2517 128.538 86.2825 128.125Z" fill="#263238"/>
<path d="M66.562 139.199C71.8502 137.096 81.8708 132.182 84.1366 130.796C87.1976 128.928 87.1049 126.755 83.1716 123.732C77.7058 119.533 55.2715 104.328 55.2715 104.328C55.2715 104.328 29.1972 116.892 23.0174 122.381C22.0832 123.211 22.0446 124.968 22.3689 125.377C25.758 129.623 40.8351 139.377 45.9535 141.878C54.0402 145.831 61.2738 141.307 66.562 139.199Z" fill="#455A64"/>
<path d="M46.8797 64.0451L46.7948 63.9949C46.1225 63.5732 45.3526 63.3325 44.5599 63.2963C41.827 63.0762 37.5115 64.9869 31.0499 69.1635C29.0676 70.3921 27.2121 71.8144 25.5108 73.4095L25.4104 73.506C24.8959 73.9954 24.4221 74.526 23.9938 75.0924C23.9204 75.1851 23.851 75.2777 23.7815 75.3742C23.712 75.4707 23.7004 75.4823 23.6657 75.5363C23.5769 75.6637 23.4881 75.7911 23.4032 75.9223C23.2334 76.1848 23.0674 76.4589 22.9053 76.7406L22.8551 76.8294L22.6698 77.1768L20.6626 75.7872C22.6389 72.0237 25.6806 70.086 28.8033 68.1676C34.2073 64.8634 40.1942 60.5711 44.0156 62.4239C44.2897 62.532 46.3779 63.7093 46.8797 64.0451Z" fill="#455A64"/>
<path d="M50.5661 70.858C50.2149 69.48 49.0221 63.524 44.5484 63.2963C41.8155 63.0763 37.5 64.9908 31.0384 69.1635C28.0315 71.0935 24.5652 73.5948 22.8436 76.814C20.3115 80.813 19.9139 91.9066 20.0644 102.58C20.215 113.252 20.9059 123.497 22.3495 125.384C24.8856 118.267 54.8739 104.259 58.3826 106.374C53.9745 103.182 52.9825 81.3186 50.5661 70.858Z" fill="#37474F"/>
<path d="M31.9761 105.648C29.3397 111.677 28.8263 117.849 29.4864 121.304C30.1464 124.759 30.7717 129.53 39.3757 134.965C49.1994 141.168 56.3558 144.75 56.3558 144.75L88.9844 123.844L66.7238 110.307L31.9761 105.648Z" fill="#00B5C0"/>
<path opacity="0.15" d="M31.9761 105.648C29.3397 111.677 28.8263 117.849 29.4864 121.304C30.1464 124.759 30.7717 129.53 39.3757 134.965C49.1994 141.168 56.3558 144.75 56.3558 144.75L88.9844 123.844L66.7238 110.307L31.9761 105.648Z" fill="black"/>
<path opacity="0.35" d="M40.2324 128.26C39.9622 127.967 39.7036 127.673 39.4604 127.38C41.9578 126.72 43.4285 123.616 43.1197 120.112C42.9382 118.104 42.7337 115.823 43.0077 113.669L42.5715 113.611C42.2936 115.815 42.4982 118.12 42.6796 120.15C42.9923 123.686 41.5216 126.542 39.1361 127.005C34.3536 121.273 35.0909 115.707 37.4184 108.319L36.9977 108.188C34.4462 116.294 34.0564 122.231 39.9081 128.557C43.7681 132.718 54.248 138.396 60.3854 142.179L60.7985 141.917C54.6726 138.149 44.0885 132.425 40.2324 128.26Z" fill="black"/>
<path opacity="0.35" d="M67.0054 116.39C65.6698 120.686 62.8906 122.748 62.8906 122.748C68.0862 126.53 72.3476 130.043 75.3198 132.621L78.9559 130.305L66.1909 121.736C67.6809 118.671 67.0054 116.39 67.0054 116.39Z" fill="black"/>
<path d="M81.6581 180.424L24.3486 147.336L119.799 92.2422L177.108 125.334L81.6581 180.424Z" fill="#00B5C0"/>
<path opacity="0.8" d="M81.6581 180.424L24.3486 147.336L119.799 92.2422L177.108 125.334L81.6581 180.424Z" fill="white"/>
<path d="M24.3486 147.336V151.47L81.6581 184.558V180.424L24.3486 147.336Z" fill="#00B5C0"/>
<path opacity="0.5" d="M24.3486 147.336V151.47L81.6581 184.558V180.424L24.3486 147.336Z" fill="white"/>
<path d="M81.6582 184.558L177.108 129.468V125.334L81.6582 180.424V184.558Z" fill="#00B5C0"/>
<path opacity="0.65" d="M81.6582 180.424L177.108 125.334V129.468L81.6582 184.558V180.424Z" fill="white"/>
<path opacity="0.2" d="M139.145 122.578L114.256 108.196C114.038 108.07 113.791 108.003 113.54 108.003C113.288 108.003 113.041 108.07 112.824 108.196L69.5996 133.147C69.5515 133.175 69.5117 133.216 69.4841 133.264C69.4564 133.312 69.4419 133.367 69.4419 133.423C69.4419 133.479 69.4564 133.533 69.4841 133.582C69.5117 133.63 69.5515 133.671 69.5996 133.699L94.7397 148.224L139.145 122.578Z" fill="#00B5C0"/>
<path d="M137.285 119.548V120.108C137.282 120.512 137.174 120.908 136.971 121.258C136.768 121.607 136.477 121.897 136.127 122.099L95.8747 145.337C95.5234 145.541 95.1232 145.646 94.7167 145.641C94.3101 145.643 93.9105 145.536 93.5587 145.333L71.6184 132.71C71.2679 132.508 70.9764 132.217 70.7733 131.867C70.5701 131.517 70.4622 131.12 70.4604 130.715V129.943C70.4606 129.994 70.4743 130.044 70.5 130.088C70.5258 130.132 70.5627 130.169 70.6071 130.194L94.7013 144.109L137.285 119.548Z" fill="#37474F"/>
<path d="M137.289 119.544L113.422 105.764C113.214 105.644 112.977 105.582 112.737 105.582C112.497 105.582 112.261 105.644 112.052 105.764L70.638 129.696C70.5924 129.723 70.5546 129.761 70.5283 129.807C70.5021 129.853 70.4883 129.905 70.4883 129.958C70.4883 130.011 70.5021 130.063 70.5283 130.11C70.5546 130.156 70.5924 130.194 70.638 130.221L94.7283 144.117L137.289 119.544Z" fill="#455A64"/>
<path d="M94.7397 144.113V145.657C95.146 145.66 95.5456 145.555 95.8977 145.352L136.15 122.115C136.5 121.912 136.792 121.622 136.995 121.271C137.198 120.921 137.306 120.524 137.308 120.119V119.544L94.7397 144.113Z" fill="#263238"/>
<path d="M94.5201 142.087L81.647 134.664L119.286 112.932L132.225 120.316L94.5201 142.087Z" fill="#37474F"/>
<path d="M132.224 120.316L131.734 120.602L119.285 113.5L82.1406 134.946L81.6504 134.664L119.285 112.932L132.224 120.316Z" fill="#263238"/>
<path d="M88.1934 121.435L88.4288 121.571L94.7399 125.214L105.961 118.737L106.193 118.602L99.646 114.823L88.1934 121.435Z" fill="#263238"/>
<path d="M88.4287 121.571L94.7398 125.215L105.961 118.738L99.6459 115.094L88.4287 121.571Z" fill="#37474F"/>
<path d="M102.888 108.732C101.707 106.994 100.308 105.415 98.7234 104.035C96.8436 102.491 96.0716 102.024 92.6786 100.402L87.6606 107.181L89.1738 107.636C89.8068 107.86 90.1503 107.922 90.3974 108.512C90.5337 109.179 90.6278 109.853 90.6792 110.531C90.8037 111.661 91.0496 112.774 91.4126 113.851C91.9452 115.449 92.2888 115.337 93.2499 116.61C94.1377 117.768 94.4967 118.568 94.9908 118.506C95.4849 118.444 96.0986 117.475 95.8477 116.39C95.5968 115.306 94.6897 113.746 94.5585 113.302C94.4504 112.916 94.2574 112.187 95.427 112.554C96.6544 112.94 98.7697 115.603 99.8312 116.699C100.893 117.796 101.549 119.471 102.533 120.208C103.518 120.945 105.015 120.907 104.598 119.305C104.757 118.378 105.328 116.776 105.467 115.29C105.606 113.804 103.985 110.323 102.888 108.732Z" fill="#FFA8A7"/>
<path d="M95.3882 144.453C95.7681 144.599 96.1761 144.659 96.5822 144.628C96.9883 144.596 97.3822 144.475 97.7351 144.271L137.802 121.134C138.149 120.933 138.448 120.658 138.677 120.329C138.906 119.999 139.059 119.623 139.126 119.227L143.515 93.0682C143.538 92.92 143.549 92.7703 143.549 92.6204C143.55 92.2613 143.479 91.9056 143.34 91.5742C143.202 91.2428 142.999 90.9424 142.743 90.6904L101.109 114.727C100.852 114.876 100.631 115.08 100.461 115.324C100.292 115.568 100.178 115.846 100.128 116.139L95.3882 144.453Z" fill="#37474F"/>
<path d="M94.7397 144.113L95.0138 144.271C95.1335 144.337 95.2608 144.399 95.3998 144.453L100.14 116.14C100.19 115.847 100.303 115.568 100.473 115.324C100.642 115.08 100.863 114.876 101.12 114.727L142.762 90.6829C142.597 90.5165 142.41 90.3736 142.206 90.2583L100.48 114.349C100.223 114.498 100.001 114.702 99.8321 114.946C99.6626 115.19 99.549 115.468 99.4991 115.761L94.7397 144.113Z" fill="#455A64"/>
<path d="M100.518 115.263L99.8696 114.877C99.6748 115.134 99.5426 115.433 99.4836 115.75L94.7358 144.102L95.0099 144.26C95.1296 144.325 95.2569 144.387 95.3959 144.441L100.136 116.128C100.193 115.814 100.324 115.517 100.518 115.263Z" fill="#263238"/>
<path d="M118.784 119.822C119.008 118.487 120.39 116.707 121.872 115.854C123.354 115.001 124.369 115.391 124.145 116.73C123.922 118.07 122.54 119.845 121.057 120.698C119.575 121.551 118.56 121.162 118.784 119.822Z" fill="#00B5C0"/>
<path d="M65.6199 65.7007C68.2717 66.326 72.1819 67.5573 73.8919 72.9073C75.9299 79.3033 78.0607 93.7783 78.0607 93.7783L92.6708 100.402L87.6528 107.18C87.6528 107.18 76.8911 104.509 71.6994 102.996C66.0985 101.363 66.2954 99.6803 64.4928 90.4394C63.3348 84.4526 62.0957 77.0993 62.0957 77.0993C62.6708 72.0697 65.6199 65.7007 65.6199 65.7007Z" fill="#FFA8A7"/>
<path d="M66.0058 65.5967C70.2518 66.581 71.7958 68.2253 73.1892 70.2711C74.5827 72.3169 75.9839 79.3228 77.0492 84.7539C78.1146 90.1849 78.6164 93.5276 78.6164 93.5276L86.4638 97.5806C86.4638 97.5806 84.5338 97.2217 82.735 100.769C81.577 103.019 82.1676 105.787 82.1676 105.787C82.1676 105.787 71.9231 103.687 69.9661 103.004C68.0091 102.321 66.662 101.649 65.6391 98.3719C64.6162 95.0948 61.3931 76.3313 61.3931 76.3313L66.0058 65.5967Z" fill="#EBEBEB"/>
<path d="M69.7617 70.9351C67.8317 67.6233 66.2606 66.1024 65.6276 65.701C63.6976 65.122 57.2321 64.6202 53.9781 65.3613C48.2344 66.168 44.0772 67.106 39.9277 68.6269C38.5381 69.1364 37.7507 70.6341 37.3878 71.5257C36.639 73.4248 36.4846 78.1225 36.4421 80.6585C36.3495 86.7611 36.5734 91.3816 35.6701 95.6044C35.122 98.1829 31.0381 104.127 29.4941 114.005C43.6063 127.036 65.7241 115.418 66.7277 110.323C66.7277 110.323 66.114 106.818 65.3149 102.684C65.3149 101.325 67.2758 96.195 67.2179 96.276C76.9258 91.1963 75.2699 79.8479 69.7617 70.9351Z" fill="#263238"/>
<path d="M62.8907 95.2568C60.7175 97.6191 52.2371 98.9778 47.4507 93.2959C48.1995 98.09 58.2162 101.718 62.8907 95.2568Z" fill="black"/>
<path d="M74.1466 46.536C73.0272 48.4004 73.6487 49.9174 72.6258 51.8319C72.2398 52.5306 53.4107 57.1471 50.1683 58.475C49.5043 56.3207 48.6745 54.221 47.6863 52.1948C45.9223 48.6513 45.1349 45.0731 45.6367 42.3981C46.2118 39.3101 48.2036 38.264 49.1879 38.264C49.1879 35.7434 51.9593 32.281 57.6799 31.0265C69.0707 28.5214 79.5159 37.6001 74.1466 46.536Z" fill="#263238"/>
<path d="M71.6529 39.6226C72.0224 39.757 72.3588 39.9692 72.6391 40.2449C72.9195 40.5206 73.1374 40.8534 73.2779 41.2206C73.9264 42.7955 74.8219 46.5204 73.4015 53.5996C72.1663 59.7447 70.0394 62.524 67.8315 63.4079C66.5036 63.9406 63.4234 63.7167 61.5513 63.2187C61.4491 63.478 61.364 63.7436 61.2965 64.0139C61.0224 64.9866 61.7558 65.1179 61.7558 65.1179C61.7558 65.1179 66.8202 72.0273 59.9532 73.0695C56.9669 73.4842 53.934 72.7563 51.4612 71.0314C49.5222 69.7619 47.6751 68.3573 45.9337 66.8279C48.2072 66.2334 48.4427 65.6698 49.0217 63.6704C50.0292 60.1076 50.9324 54.4064 50.9324 54.4064C50.9324 54.4064 49.1452 55.9928 47.4121 53.8389C45.3972 51.3299 45.1926 47.6629 47.4121 46.3698C50.1141 44.7988 51.8665 46.6825 52.4803 48.5893C53.0438 50.3302 54.9468 50.612 55.6493 48.6241C56.6491 45.7831 56.4792 42.0621 59.6714 40.024C61.6825 38.7309 64.7589 38.7425 67.6385 42.0389C69.0937 39.7114 70.4563 39.2211 71.6529 39.6226Z" fill="#FFA8A7"/>
<path d="M61.9724 55.5454L65.5699 56.935C65.4876 57.1751 65.3578 57.3962 65.1884 57.5852C65.019 57.7742 64.8133 57.9272 64.5837 58.0352C64.354 58.1432 64.1049 58.204 63.8513 58.2139C63.5977 58.2238 63.3447 58.1827 63.1072 58.093C62.6267 57.8959 62.2405 57.5212 62.0292 57.0467C61.8178 56.5722 61.7975 56.0345 61.9724 55.5454Z" fill="#B16668"/>
<path d="M61.895 56.6108C62.0456 56.6157 62.1954 56.6338 62.3428 56.6649C62.7512 56.7547 63.1333 56.9381 63.4588 57.2007C63.7843 57.4633 64.0445 57.7978 64.2187 58.178C63.8499 58.2704 63.4615 58.2461 63.1071 58.1085C62.7936 57.9837 62.5175 57.7804 62.3053 57.5181C62.0931 57.2558 61.9518 56.9434 61.895 56.6108Z" fill="#F28F8F"/>
<path d="M62.9836 44.4247L60.216 45.3318C60.1475 45.1538 60.1161 44.9637 60.1237 44.7731C60.1312 44.5825 60.1777 44.3955 60.26 44.2235C60.3424 44.0515 60.4591 43.8981 60.6028 43.7727C60.7466 43.6474 60.9144 43.5527 61.0961 43.4945C61.47 43.3821 61.8726 43.4157 62.2228 43.5883C62.5731 43.7609 62.8449 44.0598 62.9836 44.4247Z" fill="#263238"/>
<path d="M70.0049 46.0225L72.5872 47.3889C72.685 47.2251 72.7483 47.043 72.7733 46.8538C72.7982 46.6646 72.7842 46.4723 72.7322 46.2886C72.6801 46.105 72.5911 45.934 72.4706 45.786C72.3501 45.638 72.2006 45.5162 72.0314 45.4281C71.6813 45.2512 71.277 45.2142 70.9006 45.3246C70.5242 45.435 70.204 45.6846 70.0049 46.0225Z" fill="#263238"/>
<path d="M69.3794 49.1529C69.3787 49.4465 69.4895 49.7294 69.6894 49.9443C69.8894 50.1593 70.1635 50.2903 70.4563 50.3109C70.6006 50.3219 70.7456 50.3037 70.8827 50.2574C71.0198 50.2112 71.1462 50.1377 71.2542 50.0415C71.3623 49.9453 71.4499 49.8284 71.5118 49.6976C71.5737 49.5668 71.6085 49.4248 71.6143 49.2803C71.6151 48.9873 71.5048 48.7049 71.3057 48.4901C71.1066 48.2752 70.8334 48.1437 70.5413 48.1223C70.3968 48.1113 70.2516 48.1294 70.1143 48.1756C69.977 48.2219 69.8504 48.2953 69.742 48.3914C69.6336 48.4875 69.5456 48.6045 69.4833 48.7353C69.4211 48.8661 69.3857 49.0081 69.3794 49.1529Z" fill="#263238"/>
<path d="M60.9877 48.6783C60.9379 48.9702 61.0017 49.27 61.1661 49.5163C61.3305 49.7625 61.583 49.9364 61.8717 50.0023C62.0127 50.0345 62.1588 50.038 62.3012 50.0126C62.4437 49.9873 62.5796 49.9336 62.7009 49.8548C62.8222 49.776 62.9265 49.6736 63.0075 49.5537C63.0885 49.4338 63.1446 49.2989 63.1725 49.157C63.2222 48.8646 63.1578 48.5642 62.9927 48.3179C62.8275 48.0716 62.5741 47.898 62.2847 47.833C62.1438 47.8003 61.9978 47.7964 61.8554 47.8215C61.7131 47.8467 61.5772 47.9003 61.4561 47.9793C61.3349 48.0582 61.231 48.1608 61.1505 48.281C61.07 48.4011 61.0147 48.5363 60.9877 48.6783Z" fill="#263238"/>
<path d="M66.0985 47.7944L65.6392 54.3873L69.5686 53.6539L66.0985 47.7944Z" fill="#F28F8F"/>
<path d="M52.4033 55.5454C52.4033 55.5454 51.7625 59.0001 53.708 61.0498C56.024 63.4777 59.745 64.3848 61.2774 64.6704C61.2186 64.4546 61.2253 64.2262 61.2967 64.0143C61.3642 63.7439 61.4493 63.4783 61.5515 63.2191C59.911 62.7675 56.6068 61.8179 54.7386 60.1929C54.0498 59.6212 53.4868 58.9132 53.0849 58.1134C52.683 57.3136 52.451 56.4392 52.4033 55.5454Z" fill="#F28F8F"/>
<path d="M50.06 52.7893C50.06 52.9466 50.0134 53.1003 49.926 53.2311C49.8387 53.3618 49.7145 53.4638 49.5692 53.5239C49.4239 53.5841 49.264 53.5999 49.1098 53.5692C48.9555 53.5385 48.8138 53.4628 48.7026 53.3516C48.5914 53.2404 48.5157 53.0987 48.485 52.9444C48.4543 52.7902 48.4701 52.6303 48.5303 52.485C48.5904 52.3397 48.6924 52.2155 48.8231 52.1282C48.9539 52.0408 49.1076 51.9941 49.2649 51.9941C49.4758 51.9941 49.678 52.0779 49.8272 52.227C49.9763 52.3762 50.06 52.5784 50.06 52.7893Z" fill="#00B5C0"/>
<path d="M48.9832 63.6899C48.9832 63.6899 49.1608 66.6158 49.9559 68.7465C51.4498 72.7262 53.5959 77.6515 56.9271 82.106C60.2583 86.5604 65.1528 92.2539 65.1528 92.2539C65.1528 92.2539 68.7155 82.3916 64.8054 71.7959C64.0351 69.7682 63.147 67.7873 62.1458 65.8631C61.9535 65.5231 61.7071 65.2167 61.4163 64.956C61.2657 64.8093 61.1499 64.5314 61.2928 64.0142L61.4472 63.4892C61.9475 63.8743 62.4855 64.208 63.0529 64.4851C63.868 64.867 64.7074 65.1945 65.5658 65.4655C65.8862 65.5736 65.9827 65.5968 65.9827 65.5968C67.7217 67.2074 69.2379 69.0429 70.4911 71.0548C73.1044 75.5556 74.7564 80.8515 74.6175 84.476C74.3782 90.8064 72.0043 93.3733 69.2135 96.2413C67.4456 98.0516 66.9477 107.821 68.7271 110.103C70.5066 112.384 74.2083 114.823 74.2083 114.823C74.2083 114.823 68.9857 115.711 59.4438 120.401C49.9019 125.091 44.4863 129.279 42.9616 131.83C42.0605 133.3 41.5502 134.976 41.4794 136.698C41.4794 136.698 34.2998 133.039 31.5823 129.457C28.8649 125.875 27.8459 120.339 28.448 115.252C29.0502 110.164 40.028 68.1791 40.028 68.1791C40.028 68.1791 44.7063 65.6585 46.7328 64.157C47.748 63.4081 48.9292 62.6709 49.238 62.7365L48.9832 63.6899Z" fill="#FAFAFA"/>
<path d="M59.1737 88.3206L53.2524 84.0746C52.2681 83.3682 51.2993 82.6464 50.3381 81.9245C49.3835 81.2319 48.4709 80.483 47.6053 79.6819C47.5088 79.5854 47.42 79.4889 47.3466 79.4001C47.2733 79.3113 47.2733 79.3113 47.2579 79.2843V79.2457C47.2579 79.1994 47.2579 79.1646 47.2579 79.1106C47.262 79.0015 47.2763 78.8929 47.3003 78.7864C47.4294 78.2635 47.6239 77.759 47.8793 77.2848C48.4322 76.257 49.0659 75.2747 49.7746 74.3474L49.8016 74.3165C49.8892 74.1953 49.9372 74.0501 49.9391 73.9006C49.941 73.7511 49.8967 73.6046 49.8122 73.4813C49.7277 73.3579 49.6072 73.2637 49.4671 73.2114C49.327 73.1592 49.1742 73.1515 49.0296 73.1894C48.5317 73.336 47.999 73.4711 47.4856 73.5754C47 73.6821 46.5044 73.7365 46.0072 73.7375L45.8297 73.7182V73.6062V73.1971C45.8297 72.6451 45.8297 72.1008 45.8297 71.5527C45.8297 70.4565 45.9069 69.3564 46.0188 68.264C46.1279 67.1629 46.3058 66.0696 46.5515 64.9907C46.0764 66.0074 45.704 67.0691 45.4398 68.1598C45.1678 69.2535 44.9666 70.3636 44.8376 71.4832C44.7643 72.0429 44.7218 72.6026 44.6832 73.1662L44.6601 73.5869V73.7954C44.6569 73.8365 44.6569 73.8778 44.6601 73.9189C44.661 74.0075 44.6726 74.0956 44.6948 74.1814C44.7457 74.36 44.846 74.5206 44.9843 74.6446C45.0901 74.7375 45.21 74.813 45.3394 74.8685C45.5226 74.9415 45.7147 74.9895 45.9107 75.0113C46.4655 75.0612 47.0244 75.0417 47.5744 74.9534C47.2231 75.4745 46.895 76.0149 46.5862 76.5862C46.259 77.1795 46.0099 77.8126 45.8451 78.4698C45.8043 78.6592 45.7785 78.8515 45.7679 79.045C45.7621 79.1517 45.7621 79.2586 45.7679 79.3654L45.7911 79.5391V79.624C45.8003 79.6754 45.8145 79.7258 45.8335 79.7745C45.8582 79.854 45.8919 79.9304 45.9339 80.0023C45.9725 80.0717 46.0034 80.1142 46.0342 80.1605C46.0916 80.2459 46.1548 80.3271 46.2234 80.4037C46.3361 80.5387 46.4559 80.6675 46.5824 80.7897C47.5077 81.6323 48.4849 82.4162 49.5082 83.1366C50.5003 83.8545 51.5193 84.5339 52.5345 85.2094C53.5497 85.8849 54.5764 86.5372 55.6225 87.178C56.6685 87.8188 57.6953 88.4557 58.7452 89.0733C60.8412 90.3123 62.9642 91.5089 65.1297 92.6245C63.1224 91.1538 61.15 89.7333 59.1737 88.3206ZM45.7949 73.8726C45.7949 73.8726 45.7949 73.8919 45.7949 73.8957C45.7949 73.8996 45.7949 73.888 45.7949 73.8726Z" fill="#E0E0E0"/>
<path d="M64.6586 94.5234C64.5698 96.3183 64.3768 98.1055 64.1761 99.8888C63.9754 101.672 63.7322 103.452 63.5971 105.231C63.516 106.123 63.462 107.014 63.4581 107.902C63.4417 108.787 63.5232 109.671 63.7013 110.539C63.8956 111.408 64.1749 112.256 64.5351 113.071C64.8693 113.9 65.3564 114.66 65.971 115.31C65.6217 115.024 65.3161 114.688 65.0639 114.314C64.8034 113.945 64.5699 113.558 64.3652 113.156C63.9646 112.342 63.6453 111.492 63.4118 110.616C63.1976 109.731 63.0951 108.824 63.1069 107.914C63.1069 107.007 63.1416 106.107 63.2149 105.212C63.3809 103.417 63.6009 101.637 63.8827 99.8618C64.1645 98.0862 64.4115 96.3029 64.6586 94.5234Z" fill="#E0E0E0"/>
<path d="M71.2477 74.5209C71.1347 74.2134 70.9829 73.9216 70.7961 73.6524C70.4751 73.1851 70.1148 72.7461 69.7192 72.34C69.3332 71.954 68.9472 71.568 68.538 71.2283C68.1289 70.8886 67.6811 70.5026 67.2411 70.1591C67.3306 70.1284 67.4183 70.0923 67.5035 70.051C67.5691 70.0236 67.6313 69.9886 67.6888 69.9468C67.7597 69.9011 67.8246 69.8467 67.8818 69.7847C68.0297 69.6376 68.1224 69.444 68.1443 69.2366C68.1572 69.128 68.1494 69.018 68.1211 68.9123C68.1107 68.867 68.0952 68.8229 68.0748 68.7811L68.0246 68.6769C67.9654 68.5762 67.8996 68.4795 67.8278 68.3874C67.6965 68.2252 67.5614 68.0786 67.4418 67.9396C67.1716 67.6655 66.8937 67.4146 66.6157 67.1676C66.047 66.6864 65.468 66.2219 64.8787 65.7741C64.2882 65.3302 63.6899 64.8979 63.0723 64.4888L64.5854 66.1022C65.0872 66.6388 65.589 67.1753 66.0638 67.7234C66.3031 67.9936 66.5424 68.2677 66.7547 68.5456C66.8593 68.6774 66.956 68.8154 67.0442 68.9586C67.0631 68.9883 67.0799 69.0193 67.0944 69.0513H67.0635C66.9387 69.0934 66.8089 69.1193 66.6775 69.1285C66.354 69.1593 66.0283 69.1593 65.7048 69.1285C65.5754 69.1161 65.4455 69.1454 65.3339 69.212C65.2223 69.2787 65.1349 69.3792 65.0845 69.499C65.0341 69.6188 65.0233 69.7516 65.0536 69.878C65.0839 70.0043 65.1539 70.1177 65.2532 70.2016L65.2956 70.2402C66.0676 70.8925 66.8666 71.5641 67.6116 72.2744C67.9976 72.6256 68.3296 72.9923 68.6693 73.3552C68.9983 73.7018 69.2966 74.0764 69.5609 74.4746C69.6702 74.6363 69.7608 74.8098 69.8311 74.9918C69.8709 75.1744 69.8903 75.3608 69.889 75.5477C69.8907 76.0363 69.8662 76.5246 69.8157 77.0106C69.7153 78.0142 69.5339 79.0294 69.3563 80.0407C69.1788 81.052 68.9704 82.0672 68.7349 83.0785C68.4994 84.0898 68.264 85.0934 68.0053 86.097C67.523 88.1208 66.8536 90.0953 66.0059 91.9951C66.6676 91.1613 67.2323 90.2548 67.6888 89.2931C68.1675 88.3513 68.5728 87.3631 68.9549 86.3865C69.337 85.41 69.6613 84.3948 69.9739 83.3873C70.2866 82.3799 70.5375 81.3492 70.7768 80.2993C71.0011 79.2755 71.1737 78.241 71.2941 77.1997C71.364 76.6467 71.3962 76.0896 71.3906 75.5322C71.3909 75.1901 71.3429 74.8496 71.2477 74.5209ZM67.1253 69.1169V69.1362C67.1263 69.1234 67.1263 69.1105 67.1253 69.0976V69.1169Z" fill="#E0E0E0"/>
<path d="M44.2236 93.798C44.2236 93.798 51.5345 94.9984 56.5486 93.5664V90.957C51.5306 92.393 44.2236 91.1925 44.2236 91.1925V93.798Z" fill="#E0E0E0"/>
<path d="M25.8622 99.7694C27.4486 90.6637 28.9888 83.1521 31.1079 76.6094C32.3547 72.7494 35.3539 70.5956 39.9241 68.627C44.8456 72.1318 42.769 83.0942 42.0742 85.6611L38.2142 101.244C38.2142 101.244 42.4216 104.637 46.9069 107.926C50.6974 110.705 53.2489 112.372 57.7149 112.901C62.1809 113.43 64.0028 113.287 66.3381 114.295C67.581 114.835 70.4143 116.086 71.3831 116.572C72.352 117.058 74.0852 118.811 75.687 119.988C77.1963 121.189 75.301 121.856 74.143 121.532C72.599 121.084 71.6688 120.417 70.6227 119.826C69.6346 119.27 68.6387 119.054 67.6042 118.668C67.9343 119.817 68.1489 120.996 68.245 122.188C68.245 122.833 68.3916 123.613 67.8319 124.084C67.4135 124.336 66.9593 124.523 66.4848 124.639C66.4732 124.872 66.3787 125.092 66.2185 125.261C65.8849 125.505 65.4703 125.611 65.0605 125.558C64.8399 125.54 64.6207 125.508 64.4043 125.462C64.3748 125.665 64.2928 125.858 64.1662 126.021C64.0396 126.183 63.8729 126.31 63.6824 126.388C62.7932 126.668 61.8447 126.701 60.938 126.484C60.8029 126.43 59.78 125.882 59.4789 125.712C59.0466 125.489 58.6606 125.361 58.4714 125.079C58.2823 124.798 58.8574 123.972 59.4017 123.887C59.9855 123.828 60.5749 123.866 61.1464 123.999C60.9118 123.521 60.7392 123.015 60.633 122.493C60.1583 121.721 56.7229 122.493 53.685 121.984C51.369 121.598 49.7131 119.398 48.667 118.93C42.0742 115.951 36.9944 113.87 30.2896 109.825C24.1676 106.15 25.0516 104.494 25.8622 99.7694Z" fill="#FFA8A7"/>
<path d="M68.2137 118.865C67.8586 117.996 67.3143 116.958 66.6504 116.719C67.061 117.314 67.3871 117.964 67.6192 118.649C67.82 118.734 68.0168 118.799 68.2137 118.865Z" fill="#F28F8F"/>
<path d="M66.5002 124.632C66.6024 124.005 66.6218 123.368 66.5581 122.737C66.5104 122.105 66.428 121.476 66.311 120.853C66.2115 120.221 66.0393 119.603 65.7976 119.012C65.5608 118.408 65.1597 117.882 64.6396 117.495C64.8572 117.719 65.0324 117.98 65.1569 118.267C65.3027 118.539 65.4229 118.825 65.5159 119.12C65.6986 119.711 65.8392 120.315 65.9366 120.926C66.0563 121.54 66.1566 122.154 66.2608 122.771C66.3773 123.386 66.4572 124.007 66.5002 124.632Z" fill="#F28F8F"/>
<path d="M64.4352 125.45C64.5008 124.83 64.5008 124.205 64.4352 123.586C64.3793 122.966 64.2865 122.35 64.1573 121.741C64.0295 121.13 63.8592 120.529 63.6478 119.942C63.4162 119.374 63.2 118.741 62.6943 118.348C62.8842 118.587 63.0257 118.861 63.1112 119.154C63.2154 119.44 63.3042 119.733 63.3814 120.027C63.5358 120.621 63.6748 121.216 63.7983 121.818C64.0531 123.022 64.2885 124.223 64.4352 125.45Z" fill="#F28F8F"/>
<path d="M59.4438 123.906C59.7047 123.91 59.964 123.946 60.2158 124.014C60.4629 124.072 60.6404 124.199 60.9531 124.296L60.8257 124.095C60.8092 124.226 60.8265 124.359 60.8759 124.481C60.9174 124.586 60.9776 124.683 61.0535 124.767C61.1912 124.93 61.3737 125.049 61.5784 125.11C61.4553 124.963 61.3491 124.803 61.2619 124.632C61.228 124.553 61.2022 124.472 61.1847 124.388C61.1758 124.318 61.1758 124.247 61.1847 124.176L61.204 124.033L61.0573 123.972C60.8248 123.884 60.5799 123.833 60.3316 123.821C60.0338 123.761 59.725 123.791 59.4438 123.906Z" fill="#F28F8F"/>
<path d="M40.0243 68.1792C33.8483 71.0935 32.7251 72.1048 30.8761 75.4206C29.0272 78.7363 28.0969 82.9437 26.8347 90.1889C25.6535 96.9748 24.0517 103.498 24.9703 105.583C25.889 107.667 26.7652 108.053 29.9883 110.103C33.2114 112.152 41.1206 115.534 41.1206 115.534C41.1206 115.534 41.2364 112.538 42.8692 110.516C45.3434 107.474 46.8951 107.91 46.8951 107.91L39.0516 101.036C39.0516 101.036 42.3982 86.8925 43.2281 83.5536C44.058 80.2147 45.162 71.024 40.0243 68.1792Z" fill="#EBEBEB"/>
<path opacity="0.2" d="M69.8661 169.871L90.0269 158.26C90.822 157.801 90.822 157.056 90.0269 156.596L60.9572 139.782C60.5111 139.556 60.0178 139.438 59.5174 139.438C59.0171 139.438 58.5238 139.556 58.0777 139.782L37.9323 151.401C37.1371 151.86 37.1371 152.605 37.9323 153.064L66.9981 169.878C67.4435 170.101 67.935 170.217 68.433 170.215C68.9311 170.214 69.4219 170.096 69.8661 169.871Z" fill="#00B5C0"/>
<path d="M85.8737 157.442L68.0057 167.532L40.5688 151.787L58.4329 141.697L85.8737 157.442Z" fill="#00B5C0"/>
<path opacity="0.6" d="M85.8737 157.442L68.0057 167.532L40.5688 151.787L58.4329 141.697L85.8737 157.442Z" fill="black"/>
<path d="M67.8129 166.795L85.0787 156.986C84.6503 155.767 84.6927 155.4 85.1675 153.779L68.0059 163.487C68.0059 163.487 67.6933 163.464 67.8129 166.795Z" fill="#F5F5F5"/>
<path d="M68.8434 162.159C68.388 162.455 68.0082 162.853 67.7347 163.323C67.4612 163.792 67.3016 164.319 67.2686 164.861V166.984C67.2686 167.984 67.9749 168.389 68.8434 167.887L85.8699 158.218V157.446L69.0596 166.938C68.5346 167.235 68.1139 166.992 68.1139 166.393V164.502C68.1326 164.175 68.228 163.857 68.3923 163.574C68.5566 163.291 68.7852 163.051 69.0596 162.873L85.8506 153.381V152.47L68.8434 162.159Z" fill="#00B5C0"/>
<path opacity="0.5" d="M68.8434 162.159C68.388 162.455 68.0082 162.853 67.7347 163.323C67.4612 163.792 67.3016 164.319 67.2686 164.861V166.984C67.2686 167.984 67.9749 168.389 68.8434 167.887L85.8699 158.218V157.446L69.0596 166.938C68.5346 167.235 68.1139 166.992 68.1139 166.393V164.502C68.1326 164.175 68.228 163.857 68.3923 163.574C68.5566 163.291 68.7852 163.051 69.0596 162.873L85.8506 153.381V152.47L68.8434 162.159Z" fill="black"/>
<path d="M85.8737 152.47L58.433 136.725L41.4065 146.398C40.9511 146.694 40.5714 147.093 40.2978 147.562C40.0243 148.031 39.8647 148.558 39.8317 149.1V151.223C39.8113 151.418 39.8431 151.615 39.9239 151.793C40.0046 151.971 40.1313 152.125 40.291 152.238L67.7317 167.983C67.5707 167.871 67.4428 167.718 67.3613 167.539C67.2798 167.361 67.2478 167.163 67.2685 166.968V164.845C67.302 164.303 67.4622 163.776 67.7364 163.306C68.0106 162.837 68.3911 162.439 68.8473 162.143L85.8737 152.47Z" fill="#00B5C0"/>
<path opacity="0.35" d="M85.8737 152.47L58.433 136.725L41.4065 146.398C40.9511 146.694 40.5714 147.093 40.2978 147.562C40.0243 148.031 39.8647 148.558 39.8317 149.1V151.223C39.8113 151.418 39.8431 151.615 39.9239 151.793C40.0046 151.971 40.1313 152.125 40.291 152.238L67.7317 167.983C67.5707 167.871 67.4428 167.718 67.3613 167.539C67.2798 167.361 67.2478 167.163 67.2685 166.968V164.845C67.302 164.303 67.4622 163.776 67.7364 163.306C68.0106 162.837 68.3911 162.439 68.8473 162.143L85.8737 152.47Z" fill="black"/>
<path d="M67.7278 163.328C67.4433 163.795 67.2837 164.327 67.2646 164.872V166.995C67.2439 167.191 67.2759 167.388 67.3574 167.566C67.4389 167.745 67.5668 167.898 67.7278 168.011L40.2871 152.266C40.1274 152.152 40.0007 151.999 39.9199 151.82C39.8392 151.642 39.8074 151.445 39.8278 151.25V149.127C39.8458 148.582 40.004 148.05 40.2871 147.583L67.7278 163.328Z" fill="#00B5C0"/>
<path opacity="0.45" d="M67.7278 163.328C67.4433 163.795 67.2837 164.327 67.2646 164.872V166.995C67.2439 167.191 67.2759 167.388 67.3574 167.566C67.4389 167.745 67.5668 167.898 67.7278 168.011L40.2871 152.266C40.1274 152.152 40.0007 151.999 39.9199 151.82C39.8392 151.642 39.8074 151.445 39.8278 151.25V149.127C39.8458 148.582 40.004 148.05 40.2871 147.583L67.7278 163.328Z" fill="black"/>
<path d="M44.0042 149.687C43.4908 151.91 43.4986 152.775 44.0042 154.404L45.3128 155.176C44.8071 153.547 44.7994 152.679 45.3128 150.459L44.0042 149.687Z" fill="#00B5C0"/>
<path d="M61.9959 160.028C61.4825 162.247 61.4903 163.089 61.9959 164.718L63.3006 165.47C62.7988 163.842 62.7911 163.004 63.3006 160.784L61.9959 160.028Z" fill="#00B5C0"/>
<path d="M89.4786 152.223L71.6107 162.309L44.1738 146.564L62.0379 136.474L89.4786 152.223Z" fill="#00B5C0"/>
<path opacity="0.4" d="M89.4786 152.223L71.6107 162.309L44.1738 146.564L62.0379 136.474L89.4786 152.223Z" fill="black"/>
<path d="M71.4099 161.572L88.6719 151.764C88.2434 150.548 88.2859 150.004 88.7606 148.382L71.6029 158.09C71.6029 158.09 71.298 158.26 71.4099 161.572Z" fill="#F5F5F5"/>
<path d="M72.4484 156.762C71.9922 157.058 71.6117 157.456 71.3375 157.925C71.0633 158.395 70.9031 158.922 70.8696 159.464V161.78C70.8696 162.78 71.576 163.185 72.4484 162.687L89.4748 153.014V152.242L72.6607 161.73C72.1396 162.031 71.715 161.788 71.715 161.186V159.125C71.7344 158.794 71.8325 158.473 72.001 158.189C72.1695 157.904 72.4036 157.664 72.6838 157.488L89.4748 147.996V147.104L72.4484 156.762Z" fill="#00B5C0"/>
<path opacity="0.25" d="M72.4484 156.762C71.9922 157.058 71.6117 157.456 71.3375 157.925C71.0633 158.395 70.9031 158.922 70.8696 159.464V161.78C70.8696 162.78 71.576 163.185 72.4484 162.687L89.4748 153.014V152.242L72.6607 161.73C72.1396 162.031 71.715 161.788 71.715 161.186V159.125C71.7344 158.794 71.8325 158.473 72.001 158.189C72.1695 157.904 72.4036 157.664 72.6838 157.488L89.4748 147.996V147.104L72.4484 156.762Z" fill="black"/>
<path d="M89.4748 147.089L62.0379 131.344L45.0115 141.017C44.5553 141.313 44.1748 141.711 43.9006 142.181C43.6264 142.65 43.4662 143.177 43.4327 143.719V146.016C43.4123 146.211 43.4445 146.407 43.526 146.585C43.6075 146.763 43.7352 146.916 43.8959 147.027L71.3328 162.772C71.1727 162.66 71.0454 162.507 70.964 162.33C70.8826 162.152 70.85 161.956 70.8696 161.761V159.445C70.9026 158.903 71.0623 158.376 71.3358 157.907C71.6093 157.438 71.989 157.039 72.4445 156.743L89.4748 147.089Z" fill="#00B5C0"/>
<path d="M71.3328 157.932C71.0487 158.398 70.8892 158.93 70.8696 159.476V161.792C70.85 161.986 70.8826 162.182 70.964 162.36C71.0454 162.538 71.1727 162.691 71.3328 162.803L43.8959 147.058C43.7352 146.946 43.6075 146.794 43.526 146.616C43.4445 146.438 43.4123 146.241 43.4327 146.047V143.75C43.453 143.204 43.6125 142.673 43.8959 142.206L71.3328 157.932Z" fill="#00B5C0"/>
<path opacity="0.15" d="M71.3328 157.932C71.0487 158.398 70.8892 158.93 70.8696 159.476V161.792C70.85 161.986 70.8826 162.182 70.964 162.36C71.0454 162.538 71.1727 162.691 71.3328 162.803L43.8959 147.058C43.7352 146.946 43.6075 146.794 43.526 146.616C43.4445 146.438 43.4123 146.241 43.4327 146.047V143.75C43.453 143.204 43.6125 142.673 43.8959 142.206L71.3328 157.932Z" fill="black"/>
<path d="M47.6014 144.291C47.0919 146.514 47.0996 147.556 47.6014 149.185L48.91 149.938C48.4043 148.309 48.3966 147.267 48.91 145.047L47.6014 144.291Z" fill="#00B5C0"/>
<path d="M65.597 154.647C65.0875 156.866 65.0952 157.874 65.597 159.503L66.9056 160.256C66.3999 158.627 66.3922 157.615 66.9056 155.392L65.597 154.647Z" fill="#00B5C0"/>
<g opacity="0.4">
<path d="M47.6014 144.291C47.0919 146.514 47.0996 147.556 47.6014 149.185L48.91 149.938C48.4043 148.309 48.3966 147.267 48.91 145.047L47.6014 144.291Z" fill="white"/>
<path d="M65.5965 154.647C65.087 156.866 65.0947 157.874 65.5965 159.503L66.9051 160.256C66.3994 158.627 66.3917 157.615 66.9051 155.392L65.5965 154.647Z" fill="white"/>
</g>
<path opacity="0.2" d="M126.585 141.515L105.2 153.867L102.236 154.47C102.219 154.472 102.201 154.47 102.185 154.464C102.169 154.457 102.156 154.446 102.146 154.432C102.136 154.418 102.13 154.401 102.129 154.384C102.127 154.367 102.131 154.35 102.139 154.334L103.066 152.636L124.454 140.284C125.037 139.944 127.04 141.249 126.585 141.515Z" fill="black"/>
<path d="M124.527 139.053C124.542 139.329 124.622 139.597 124.76 139.837C124.898 140.076 125.091 140.28 125.322 140.431C125.457 140.519 125.619 140.554 125.778 140.527C125.754 140.554 125.725 140.577 125.693 140.593L125.882 140.485L125.909 140.462L125.948 140.435L125.967 140.411L125.986 140.388C126.014 140.351 126.036 140.311 126.052 140.269V140.23C126.052 140.23 126.052 140.207 126.052 140.195C126.068 140.131 126.076 140.065 126.075 139.998C126.06 139.723 125.98 139.455 125.842 139.216C125.704 138.978 125.511 138.775 125.28 138.624C125.174 138.556 125.051 138.519 124.925 138.516H124.871H124.825H124.798H124.767H124.736L124.57 138.613C124.596 138.597 124.625 138.586 124.655 138.582C124.603 138.648 124.565 138.723 124.543 138.804C124.521 138.885 124.516 138.97 124.527 139.053Z" fill="#00B5C0"/>
<path d="M103.98 150.54L105.104 152.47L105.293 152.362L125.693 140.578C125.725 140.561 125.754 140.539 125.778 140.512C125.883 140.387 125.936 140.227 125.925 140.064C125.91 139.789 125.83 139.52 125.692 139.282C125.554 139.043 125.361 138.84 125.129 138.69C125.023 138.623 124.9 138.586 124.774 138.582C124.741 138.578 124.707 138.578 124.674 138.582C124.644 138.586 124.615 138.597 124.589 138.613L103.98 150.54Z" fill="#F0F0F0"/>
<path d="M104.544 150.594C104.104 150.343 103.749 150.548 103.749 151.053C103.764 151.329 103.844 151.598 103.982 151.837C104.12 152.077 104.313 152.28 104.544 152.431C104.98 152.682 105.339 152.478 105.339 151.972C105.324 151.696 105.244 151.428 105.106 151.188C104.968 150.949 104.775 150.745 104.544 150.594Z" fill="#00B5C0"/>
<path d="M102.834 151.775V151.752L103.849 150.64V150.617C103.94 150.545 104.052 150.506 104.168 150.506C104.283 150.506 104.396 150.545 104.486 150.617C104.718 150.768 104.91 150.972 105.048 151.211C105.186 151.451 105.266 151.719 105.281 151.995C105.297 152.107 105.274 152.221 105.219 152.319C105.163 152.417 105.077 152.495 104.973 152.539H104.915L103.444 152.86C103.355 152.875 103.264 152.856 103.189 152.806C103.059 152.721 102.95 152.607 102.871 152.473C102.792 152.339 102.745 152.189 102.734 152.034C102.734 151.938 102.77 151.846 102.834 151.775Z" fill="#E0E0E0"/>
<path d="M115.819 144.541H115.846C115.877 144.532 115.91 144.53 115.942 144.535C115.974 144.539 116.005 144.551 116.032 144.568C116.114 144.622 116.182 144.695 116.231 144.78C116.28 144.865 116.308 144.96 116.313 145.059C116.317 145.09 116.312 145.122 116.301 145.151C116.29 145.181 116.271 145.207 116.248 145.228L116.213 145.252L104.147 152.2L103.352 151.74L115.819 144.541Z" fill="#455A64"/>
<path d="M105.266 151.551L104.147 152.2L103.352 151.74L104.869 150.864C105.049 151.062 105.184 151.296 105.266 151.551Z" fill="#37474F"/>
<path d="M102.436 152.304L103.355 151.293L103.378 151.266C103.444 151.217 103.524 151.191 103.606 151.191C103.688 151.191 103.768 151.217 103.834 151.266C103.997 151.372 104.133 151.516 104.23 151.685C104.327 151.854 104.383 152.044 104.393 152.238C104.402 152.317 104.386 152.396 104.348 152.465C104.31 152.534 104.252 152.589 104.181 152.624H104.146L102.799 152.918C102.749 152.925 102.699 152.914 102.656 152.887C102.582 152.838 102.52 152.773 102.476 152.696C102.431 152.618 102.406 152.532 102.402 152.443C102.396 152.394 102.408 152.345 102.436 152.304Z" fill="#00B5C0"/>
<path opacity="0.1" d="M102.436 152.304L103.355 151.293L103.378 151.266C103.444 151.217 103.524 151.191 103.606 151.191C103.688 151.191 103.768 151.217 103.834 151.266C103.997 151.372 104.133 151.516 104.23 151.685C104.327 151.854 104.383 152.044 104.393 152.238C104.402 152.317 104.386 152.396 104.348 152.465C104.31 152.534 104.252 152.589 104.181 152.624H104.146L102.799 152.918C102.749 152.925 102.699 152.914 102.656 152.887C102.582 152.838 102.52 152.773 102.476 152.696C102.431 152.618 102.406 152.532 102.402 152.443C102.396 152.394 102.408 152.345 102.436 152.304Z" fill="black"/>
<path d="M102.386 152.47C102.391 152.559 102.416 152.645 102.461 152.723C102.505 152.8 102.567 152.865 102.641 152.914C102.684 152.941 102.734 152.952 102.784 152.945L103.463 152.794C103.572 152.775 103.641 152.671 103.641 152.509C103.633 152.367 103.592 152.229 103.521 152.106C103.45 151.984 103.351 151.879 103.232 151.802C103.186 151.765 103.129 151.745 103.07 151.745C103.011 151.745 102.954 151.765 102.908 151.802H102.888L102.433 152.304C102.413 152.327 102.399 152.353 102.391 152.382C102.383 152.411 102.382 152.441 102.386 152.47Z" fill="#00B5C0"/>
<path opacity="0.1" d="M102.641 152.304C102.498 152.223 102.386 152.304 102.386 152.451C102.391 152.54 102.416 152.626 102.46 152.703C102.505 152.78 102.567 152.846 102.641 152.895C102.78 152.976 102.896 152.895 102.896 152.748C102.891 152.659 102.866 152.573 102.821 152.496C102.777 152.419 102.715 152.353 102.641 152.304Z" fill="black"/>
<path d="M122.871 140.465C122.903 140.45 122.939 140.443 122.975 140.447C123.01 140.45 123.044 140.463 123.072 140.485C123.154 140.538 123.222 140.61 123.271 140.694C123.32 140.779 123.348 140.874 123.354 140.971C123.359 141.006 123.353 141.042 123.338 141.074C123.323 141.106 123.299 141.133 123.269 141.152L116.252 145.209C116.275 145.188 116.293 145.162 116.305 145.132C116.316 145.103 116.32 145.071 116.317 145.039C116.312 144.941 116.284 144.846 116.235 144.761C116.186 144.675 116.118 144.603 116.035 144.549C116.008 144.532 115.978 144.52 115.946 144.515C115.914 144.511 115.881 144.513 115.85 144.522L122.871 140.465Z" fill="#FAFAFA"/>
<path d="M122.79 140.647C122.796 140.744 122.824 140.839 122.873 140.923C122.922 141.008 122.99 141.08 123.072 141.133C123.1 141.153 123.133 141.166 123.168 141.169C123.202 141.173 123.237 141.167 123.269 141.152C123.298 141.133 123.322 141.106 123.337 141.074C123.352 141.042 123.358 141.006 123.354 140.971C123.348 140.874 123.32 140.779 123.271 140.694C123.222 140.61 123.154 140.538 123.072 140.485C123.044 140.463 123.01 140.45 122.974 140.447C122.939 140.443 122.903 140.45 122.871 140.465C122.843 140.486 122.82 140.513 122.806 140.545C122.792 140.577 122.786 140.612 122.79 140.647Z" fill="#F5F5F5"/>
<path d="M123.42 139.442L124.578 138.767H124.605C124.683 138.736 124.769 138.724 124.853 138.735C124.937 138.745 125.018 138.776 125.087 138.825C125.296 138.96 125.469 139.143 125.594 139.358C125.719 139.574 125.791 139.815 125.805 140.064C125.815 140.153 125.801 140.243 125.763 140.325C125.726 140.407 125.667 140.476 125.593 140.527L124.404 141.214C124.323 141.247 124.236 141.259 124.149 141.249C124.063 141.239 123.98 141.207 123.91 141.156C123.701 141.022 123.528 140.839 123.404 140.625C123.28 140.41 123.208 140.169 123.196 139.921C123.187 139.829 123.203 139.735 123.242 139.651C123.282 139.567 123.343 139.495 123.42 139.442Z" fill="#00B5C0"/>
<path opacity="0.05" d="M123.42 139.442L124.578 138.767H124.605C124.683 138.736 124.769 138.724 124.853 138.735C124.937 138.745 125.018 138.776 125.087 138.825C125.296 138.96 125.469 139.143 125.594 139.358C125.719 139.574 125.791 139.815 125.805 140.064C125.815 140.153 125.801 140.243 125.763 140.325C125.726 140.407 125.667 140.476 125.593 140.527L124.404 141.214C124.323 141.247 124.236 141.259 124.149 141.249C124.063 141.239 123.98 141.207 123.91 141.156C123.701 141.022 123.528 140.839 123.404 140.625C123.28 140.41 123.208 140.169 123.196 139.921C123.187 139.829 123.203 139.735 123.242 139.651C123.282 139.567 123.343 139.495 123.42 139.442Z" fill="black"/>
<path opacity="0.1" d="M123.941 139.485C123.555 139.257 123.227 139.439 123.227 139.898C123.239 140.146 123.311 140.387 123.435 140.601C123.559 140.816 123.732 140.998 123.941 141.133C124.327 141.361 124.655 141.179 124.655 140.72C124.641 140.473 124.569 140.232 124.445 140.017C124.321 139.803 124.148 139.62 123.941 139.485Z" fill="black"/>
<path d="M102.062 152.733L102.545 152.439C102.56 152.431 102.576 152.426 102.593 152.426C102.61 152.426 102.627 152.431 102.641 152.439C102.68 152.464 102.712 152.498 102.734 152.537C102.757 152.577 102.77 152.621 102.773 152.667C102.774 152.683 102.771 152.7 102.764 152.714C102.758 152.729 102.747 152.742 102.734 152.752L102.252 153.045C102.223 153.059 102.191 153.067 102.159 153.068C102.109 153.067 102.062 153.047 102.028 153.012C101.993 152.976 101.974 152.929 101.974 152.879C101.975 152.849 101.984 152.82 101.999 152.794C102.015 152.769 102.036 152.748 102.062 152.733Z" fill="#455A64"/>
<path d="M102.031 152.752L102.055 152.732C102.068 152.726 102.082 152.723 102.097 152.723C102.112 152.723 102.126 152.726 102.139 152.732C102.177 152.758 102.209 152.791 102.232 152.831C102.254 152.87 102.268 152.915 102.271 152.96C102.272 152.976 102.269 152.993 102.262 153.007C102.256 153.022 102.245 153.035 102.232 153.045H102.213C102.192 153.049 102.171 153.049 102.151 153.045C102.114 153.044 102.078 153.032 102.047 153.011C102.017 152.989 101.993 152.96 101.98 152.925C101.966 152.89 101.963 152.853 101.971 152.816C101.979 152.78 101.997 152.747 102.024 152.721L102.031 152.752Z" fill="#263238"/>
<path opacity="0.2" d="M114.414 151.609C114.63 152.192 115.252 152.555 116.29 152.69L134.818 141.901L136.748 139.971C136.771 139.947 136.785 139.916 136.788 139.883C136.792 139.85 136.784 139.816 136.766 139.788C136.749 139.76 136.722 139.738 136.691 139.727C136.66 139.715 136.625 139.714 136.594 139.724L133.054 140.882L114.414 151.609Z" fill="black"/>
<path d="M133.17 139.562L136.32 138.944C136.34 138.942 136.36 138.945 136.378 138.954C136.396 138.962 136.411 138.976 136.421 138.994C136.431 139.011 136.436 139.032 136.434 139.052C136.433 139.072 136.425 139.091 136.412 139.107L134.274 141.527L133.17 139.562Z" fill="#FFA8A7"/>
<path d="M136.424 139.107C136.436 139.091 136.444 139.072 136.445 139.052C136.447 139.032 136.442 139.011 136.433 138.994C136.423 138.976 136.407 138.962 136.389 138.954C136.371 138.945 136.351 138.942 136.331 138.944L135.717 139.064C135.802 139.117 135.87 139.192 135.914 139.282C135.958 139.371 135.977 139.47 135.968 139.57V139.624L136.424 139.107Z" fill="#263238"/>
<path d="M118.799 150.393L119.058 150.246L119.37 150.069L134.285 141.527C134.39 141.179 134.358 140.805 134.197 140.481C134.114 140.257 133.979 140.057 133.802 139.897C133.625 139.737 133.412 139.622 133.181 139.562L118.274 148.1L117.68 148.444C118.073 148.243 119.197 150.189 118.799 150.393Z" fill="#455A64"/>
<path d="M119.783 149.833L120.358 149.501C120.528 149.413 120.432 148.996 120.231 148.563C119.969 147.988 119.459 147.436 119.227 147.552L118.803 147.799L118.652 147.888C118.876 147.768 119.397 148.324 119.66 148.895C119.849 149.308 119.945 149.714 119.799 149.822L119.783 149.833Z" fill="#EBEBEB"/>
<path d="M119.926 149.768C120.312 149.559 119.189 147.614 118.795 147.838L118.22 148.166C118.606 147.957 119.764 149.903 119.351 150.115L119.926 149.768Z" fill="#00B5C0"/>
<path d="M118.799 150.393L119.37 150.069C119.756 149.865 118.683 147.977 118.274 148.101H118.247L117.68 148.432C118.073 148.243 119.197 150.189 118.799 150.393Z" fill="#EBEBEB"/>
<path opacity="0.15" d="M136.435 138.998L136.331 138.944L134.046 140.195L118.502 149.108C118.479 149.073 118.463 149.069 118.448 149.108C118.784 149.629 119.038 150.289 118.814 150.405L119.073 150.258L119.386 150.08L134.301 141.538L136.439 139.118C136.452 139.1 136.458 139.079 136.457 139.058C136.456 139.036 136.449 139.015 136.435 138.998Z" fill="black"/>
<path d="M116.386 151.775L118.799 150.393C118.969 150.305 118.876 149.892 118.679 149.463C118.421 148.888 117.907 148.328 117.68 148.444L115.255 149.83C114.773 150.108 115.217 151.154 115.753 151.621C115.831 151.708 115.933 151.769 116.046 151.796C116.159 151.824 116.278 151.817 116.386 151.775Z" fill="#F28F8F"/>
<path opacity="0.1" d="M116.529 151.026C116.468 150.765 116.347 150.522 116.176 150.315C116.005 150.108 115.79 149.943 115.545 149.833C115.485 149.811 115.421 149.804 115.357 149.813C115.294 149.821 115.234 149.846 115.182 149.884C114.819 150.219 115.244 151.181 115.75 151.621C115.825 151.706 115.925 151.767 116.036 151.795C116.147 151.823 116.263 151.818 116.371 151.779C116.572 151.675 116.622 151.397 116.529 151.026Z" fill="black"/>
<path opacity="0.2" d="M163.17 127.063C163.091 127.449 162.933 127.814 162.707 128.136C162.258 128.778 161.666 129.306 160.977 129.68C157.986 131.41 153.134 131.41 150.139 129.68C149.451 129.305 148.859 128.777 148.409 128.136C148.187 127.813 148.032 127.448 147.954 127.063C147.687 125.766 148.417 124.411 150.142 123.416C153.138 121.686 157.99 121.686 160.981 123.416C162.703 124.411 163.436 125.766 163.17 127.063Z" fill="#00B5C0"/>
<path d="M161.464 121.296H149.498L150.733 126.449C150.825 127.071 151.285 127.681 152.107 128.156C153.967 129.229 156.986 129.229 158.846 128.156C159.734 127.642 160.194 126.978 160.236 126.311L161.464 121.296Z" fill="#E0E0E0"/>
<path d="M162.089 119.768C162.024 120.101 161.893 120.417 161.703 120.698C161.312 121.253 160.798 121.71 160.202 122.034C157.604 123.531 153.393 123.531 150.795 122.034C150.198 121.71 149.684 121.253 149.293 120.698C149.103 120.417 148.972 120.101 148.907 119.768C148.676 118.641 149.312 117.452 150.81 116.603C153.408 115.101 157.619 115.101 160.217 116.603C161.684 117.467 162.321 118.641 162.089 119.768Z" fill="#FAFAFA"/>
<path d="M161.687 120.698C161.297 121.253 160.783 121.71 160.186 122.034C157.588 123.532 153.377 123.532 150.779 122.034C150.182 121.71 149.669 121.253 149.278 120.698C149.087 120.418 148.956 120.101 148.892 119.768L149.189 121.798C149.324 122.613 149.93 123.408 151.015 124.033C153.493 125.462 157.503 125.462 159.981 124.033C161.051 123.416 161.657 122.632 161.803 121.825V121.721L162.089 119.768C162.02 120.102 161.883 120.419 161.687 120.698Z" fill="#EBEBEB"/>
<path d="M159.418 117.054C157.252 115.804 153.744 115.804 151.578 117.054C150.355 117.761 149.822 118.718 149.984 119.64C150.107 120.347 150.64 121.038 151.578 121.57C153.744 122.821 157.252 122.821 159.418 121.57C160.356 121.03 160.888 120.339 161.012 119.64C161.159 118.718 160.63 117.761 159.418 117.054Z" fill="#E0E0E0"/>
<path d="M150.332 120.498C150.656 120.945 151.077 121.315 151.563 121.578C153.728 122.829 157.237 122.829 159.403 121.578C159.888 121.315 160.307 120.945 160.63 120.498C160.63 119.749 160.113 119.004 159.125 118.432C157.114 117.274 153.852 117.274 151.841 118.432C150.853 119.004 150.351 119.749 150.332 120.498Z" fill="#00B5C0"/>
<path d="M153.809 112.43C153.705 109.373 152.551 104.621 151.447 102.703C153.533 105.274 154.749 108.44 154.921 111.747L153.809 112.43Z" fill="#263238"/>
<path d="M157.129 119.031C157.229 116.904 158.796 116.213 160.557 116.904C161.807 117.398 163.614 119.255 164.185 122.219C163.625 120.69 159.565 115.537 157.129 119.031Z" fill="#455A64"/>
<path d="M157.222 120.046C157.322 119.274 158.036 118.216 159.279 118.471C160.522 118.726 163.448 121.011 164.683 124.763C164.459 122.246 163.641 120.077 161.962 118.668C160.283 117.259 159.055 117.047 157.828 117.776C156.778 118.409 157.222 120.046 157.222 120.046Z" fill="#37474F"/>
<path d="M154.99 121.08C153.979 117.699 153.832 111.43 154.801 108.018C156.179 103.212 159.047 101.109 161.166 100.599C159.148 101.441 157.017 104.521 156.419 107.547C155.82 110.573 156.164 121.096 156.164 121.096L154.99 121.08Z" fill="#455A64"/>
<path d="M155.82 117.784C155.952 115.893 157.056 111.697 159.24 110.006C160.018 109.391 160.995 109.085 161.985 109.146C162.974 109.207 163.906 109.632 164.602 110.338C164.016 109.891 163.296 109.654 162.559 109.665C161.822 109.676 161.109 109.935 160.537 110.4C159.379 111.349 158.221 114.198 157.635 116.904L155.82 117.784Z" fill="#263238"/>
<path d="M158.796 110.396C160.171 109.049 161.244 108.138 162.95 108.227C164.656 108.315 166.933 110.697 168.253 115.746C166.891 112.538 165.123 109.72 162.294 109.419C161.675 109.333 161.045 109.375 160.443 109.543C159.841 109.711 159.281 110.002 158.796 110.396Z" fill="#37474F"/>
<path d="M143.43 107.4C146.124 107.292 148.765 108.178 150.849 109.89C152.932 111.602 154.314 114.02 154.732 116.684L153.219 116.441C153.219 116.441 151.96 112.465 149.768 110.396C147.838 108.566 146.398 107.837 143.43 107.4Z" fill="#455A64"/>
<path d="M155.106 115.734C155.222 114.028 154.419 110.442 151.81 108.014C149.2 105.586 148.262 105.054 145.58 104.367C147.753 105.491 149.658 107.071 151.165 108.999C152.89 111.253 152.968 113.924 152.968 114.932C153.261 115.734 154.322 117.379 155.106 115.734Z" fill="#37474F"/>
<path d="M154.991 116.572C154.651 114.399 155.82 110.508 157.187 108.605C158.839 106.289 161.275 104.579 163.98 104.112C161.085 105.22 158.171 108.45 157.314 111.5C156.805 113.526 156.684 115.631 156.959 117.703L154.991 116.572Z" fill="#37474F"/>
<path d="M155.913 121.08C155.546 119.05 156.195 114.819 159.537 112.488C162.88 110.156 165.208 110.782 166.069 111.037C163.482 110.863 160.881 112.303 159.294 114.086C158.19 115.325 157.156 117.351 157.09 120.714L155.913 121.08Z" fill="#455A64"/>
<path d="M155.944 121.25C155.944 121.25 156.82 121.227 157.172 120.818C157.172 119.506 157.527 116.877 159.368 115.325C161.209 113.774 162.645 114.071 162.935 114.681C162.935 113.785 161.811 112.99 160.568 113.256C158.499 113.696 155.558 116.391 155.944 121.25Z" fill="#263238"/>
<path d="M159.495 113.657C160.63 113.04 161.603 112.499 162.869 113.098C162.923 113.063 163.641 112.882 163.915 113.206C164.972 114.453 164.633 117.556 162.695 120.54C163.587 118.309 163.629 114.194 161.985 113.553C161.174 113.258 160.279 113.296 159.495 113.657Z" fill="#37474F"/>
<path d="M162.869 113.098C163.378 113.33 164.413 115.117 163.749 117.606C164.374 115.727 164.135 113.916 163.093 113.04C163.016 113.05 162.941 113.07 162.869 113.098Z" fill="#263238"/>
<path d="M153.732 120.644C153.632 119.853 152.917 118.81 151.675 119.065C150.432 119.32 147.506 121.609 146.271 125.357C146.417 123.042 147.353 120.847 148.922 119.139C150.273 117.714 152.049 117.027 153.458 117.784C154.867 118.54 153.732 120.644 153.732 120.644Z" fill="#263238"/>
<path d="M153.219 115.904C152.126 114.812 151.362 113.766 149.359 114.179C147.355 114.592 145.973 116.776 145.429 119.722C145.769 118.564 146.803 115.981 148.857 115.537C150.91 115.093 151.906 115.248 153.219 115.904Z" fill="#455A64"/>
<path d="M153.732 120.644C153.446 118.714 152.713 115.97 150.663 115.858C148.614 115.746 146.363 117.039 145.425 119.718C145.904 117.274 147.988 114.943 150.162 114.939C152.335 114.935 154.473 115.406 154.99 121.076L153.732 120.644Z" fill="#37474F"/>
<path d="M152.003 112.469C151.217 111.737 150.235 111.251 149.177 111.068C148.479 110.948 147.12 110.411 145.665 111.766C144.21 113.121 142.677 116.286 143.206 118.502C143.453 116.147 146.607 109.562 152.003 112.469Z" fill="#37474F"/>
<path d="M155.28 121.273C155.28 119.486 153.975 113.82 151.914 112.376C149.336 110.573 147.61 112.11 147.61 112.11C148.127 111.944 148.676 111.901 149.212 111.986C149.748 112.07 150.257 112.279 150.698 112.596C152.03 113.573 153.273 116.421 153.748 120.644C153.938 120.859 154.175 121.028 154.441 121.137C154.706 121.246 154.994 121.293 155.28 121.273Z" fill="#263238"/>
<path d="M154.11 115.951C153.987 116.476 154.527 120.37 154.948 121.25C155.36 121.313 155.78 121.307 156.191 121.231C156.577 120.548 156.191 116.14 156.963 116.055C156.372 115.8 154.4 115.051 154.11 115.951Z" fill="#37474F"/>
<path d="M154.11 115.95C154.72 115.325 157.198 116.56 157.654 120.239C158.268 118.494 157.994 116.333 157.38 115.788C157.212 115.632 156.999 115.532 156.772 115.501C156.545 115.47 156.314 115.509 156.11 115.615C156.11 115.615 154.195 114.773 154.11 115.95Z" fill="#455A64"/>
<path d="M156.11 115.614C156.882 115.935 157.731 116.985 157.723 118.776C157.781 117.857 157.604 116.247 156.307 115.537C156.239 115.557 156.173 115.583 156.11 115.614Z" fill="#37474F"/>
<path d="M36.9436 41.5453C36.855 41.4962 36.7553 41.471 36.6541 41.4719L31.748 41.1245V47.4781L34.423 49.0221L39.7112 44.0504C39.782 43.9898 39.8373 43.9133 39.8726 43.8271C39.9079 43.7409 39.9221 43.6476 39.9142 43.5548C39.9063 43.462 39.8764 43.3725 39.827 43.2935C39.7776 43.2146 39.7101 43.1485 39.6302 43.1008L36.9436 41.5453Z" fill="#00B5C0"/>
<path opacity="0.2" d="M36.9436 41.5453C36.855 41.4962 36.7553 41.471 36.6541 41.4719L31.748 41.1245V47.4781L34.423 49.0221L39.7112 44.0504C39.782 43.9898 39.8373 43.9133 39.8726 43.8271C39.9079 43.7409 39.9221 43.6476 39.9142 43.5548C39.9063 43.462 39.8764 43.3725 39.827 43.2935C39.7776 43.2146 39.7101 43.1485 39.6302 43.1008L36.9436 41.5453Z" fill="black"/>
<path d="M34.4233 42.6685L39.3294 43.0159C39.4493 43.0154 39.5664 43.0516 39.6651 43.1197C39.7637 43.1878 39.8391 43.2845 39.8812 43.3968C39.9232 43.509 39.9299 43.6315 39.9002 43.7476C39.8706 43.8638 39.8061 43.9681 39.7154 44.0465L34.4233 49.022V42.6685Z" fill="#00B5C0"/>
<path d="M34.7702 33.2155C34.7519 32.8475 34.6461 32.4892 34.4614 32.1703C34.2768 31.8514 34.0188 31.5811 33.7087 31.382L32.848 30.8802C32.5192 30.7128 32.1554 30.6255 31.7865 30.6255C31.4175 30.6255 31.0538 30.7128 30.725 30.8802L12.9072 41.1825C12.5984 41.3839 12.3414 41.6552 12.1569 41.9744C11.9725 42.2936 11.8659 42.6518 11.8457 43.0199V65.1223C11.8659 65.4904 11.9725 65.8486 12.1569 66.1678C12.3414 66.487 12.5984 66.7583 12.9072 66.9596L13.7718 67.4576C14.1005 67.6232 14.4634 67.7094 14.8314 67.7094C15.1994 67.7094 15.5623 67.6232 15.891 67.4576L33.7087 57.1552C34.0188 56.9561 34.2768 56.6859 34.4614 56.367C34.6461 56.0481 34.7519 55.6898 34.7702 55.3217V33.2155Z" fill="#00B5C0"/>
<path opacity="0.2" d="M11.8461 65.1221C11.8663 65.4902 11.9729 65.8483 12.1573 66.1676C12.3418 66.4868 12.5988 66.7581 12.9076 66.9594L13.7722 67.4574C14.0699 67.6065 14.3956 67.6911 14.7282 67.7058C15.0607 67.7204 15.3927 67.6647 15.7022 67.5423C15.2043 67.7314 14.8222 67.4496 14.8222 66.8436V44.7413C14.836 44.3717 14.9436 44.0117 15.1348 43.6952L12.151 41.9736C11.9589 42.2898 11.8512 42.65 11.8384 43.0197L11.8461 65.1221Z" fill="black"/>
<path opacity="0.25" d="M34.7397 32.9145C34.6162 32.4668 34.2071 32.3239 33.7168 32.6057L15.8914 42.9081C15.5786 43.0956 15.3204 43.3618 15.1425 43.6801L12.1626 41.9585C12.3403 41.6413 12.5969 41.3754 12.9076 41.1865L30.7253 30.8803C31.054 30.7147 31.4169 30.6284 31.7849 30.6284C32.1529 30.6284 32.5158 30.7147 32.8445 30.8803L33.713 31.3782C33.9793 31.5513 34.2077 31.7768 34.3842 32.0409C34.5607 32.305 34.6817 32.6022 34.7397 32.9145Z" fill="white"/>
<path d="M24.0358 55.5841C23.1017 56.1245 22.6269 57.2594 22.6269 58.3672C22.6269 59.475 23.1017 60.0887 24.0358 59.5483C24.97 59.0079 25.4332 57.8615 25.4332 56.7498C25.4332 55.6382 24.9545 55.0669 24.0358 55.5841ZM24.2829 41.1516C21.9669 42.4949 20.3457 45.3165 19.8555 48.4045L22.4455 47.9683C22.7427 46.6868 23.1828 45.799 24.2018 45.2123C25.2209 44.6256 25.6107 45.2818 25.6107 46.1657C25.6107 47.177 25.0201 48.2733 22.6578 50.7745V55.0669L25.4332 53.465V51.1065C26.8112 49.5278 28.3861 47.1269 28.3861 44.0196C28.3861 41.0898 26.8768 39.6655 24.2829 41.1632V41.1516Z" fill="white"/>
</svg>
